<svg xmlns="http://www.w3.org/2000/svg" viewBox="0 0 512 77.3"><path fill="#055FA5" fill-rule="evenodd" d="M166 0c1 0 2.2 0 2.5 1 0 1.9-2.9 3.5-3.2 5.1s-2.5 13.2-1 14.5c4.9 0 4.2-11 11.2-3.9l2.6 3.2c1.6 3.2.6 11.6 0 16-.6 4.6 0 8.1 0 12 0 2.2 0 4.8-.6 7.3-1 3-5.5 5.2-8 6.5l-5.1 4.1c-4-.7-7.5-3.3-9.3-7V8.7c0-1-1.6-1.3-1-3l4.5-.9c2.6-1.4 5-3 7.4-4.8zm185.7 0c.6 0 1.2.2 1.6.6 0 3.3-3.2 4.2-3.8 6.8l-1 21.5c-.5 5.1-.7 10.3-.6 15.4V52c.3 2 3.5 1 3.8 3-2 3.3-4.4 6.4-7 9.2-7 3-6.4-8-8-8a74 74 0 01-8 9.3c-2.2 0-3.2-4.2-5.7-4.8-2-.6-6.4.6-7.7 0 0-3.2 6-12.2 7.4-15.4.6-3.2 1-6.4 1-9.7l.2-16c0-4.8 1-14.8-2.5-16-2-.4-2.9 1.5-3.2 3.1l1.6 5.2c1 5.4 2.2 13.5-.3 18.3-.7 1-4.5 6.4-5.8 5.1-1.2-3.2 3.2-4.1 2.3-7.7l-2-4.5a27.4 27.4 0 01-3.1-8.6c0-2.1.7-4.1 1.9-5.8 2.2-4.2 5-9.7 12.1-8.4 2 .3 3.8 1 5.4 2 1.5 1 2.6 2.4 3.2 4.1 1.2 5 1.5 10.3 1 15.4l-.3 9.7c0 3.2 0 7.4-1 9.6-.8 1.6-1.9 3-3.2 4.2-1.3 1-5.7 4.2-5.7 5.1v.3l2.2.4c2.2.3 4.3 1.2 6 2.5.2.4.6.7 1 .7a6.4 6.4 0 003.2-3.2l.7-7.4c1.2-9.3 0-19.6 1.2-29l1-6.3c1.8-4 5.3-7 9.6-8l2.5-.4zM238.4.3c1 0 2.2.3 2 1.6S238 4.2 237 5.1a34.9 34.9 0 00-1.2 16.7c4.1-.6 5.4-10.2 10.2-7a9.6 9.6 0 014.4 5.4l-1.9 45.6c-.9 2.7-2.7 5-5 6.5-2 1.2-9.7 5.1-12.8 3.2-.7-3 3.5-2.3 5-3.2 1.5-1.3 2.6-2.8 3.3-4.5 1-4.2 1.5-8.6 1.5-12.9.7-5.3 1-10.7 1-16 0-3.9.3-15.8-2-16.1-.9-.3-1.2.3-1.5.6-4.2 3.3-2.2 7.8-3.2 14.2v17c.3 1.3 2.2 1.6 2.6 3.2a63.2 63.2 0 01-5.5 6.8c-.8.3-1.7.3-2.5 0-1.6-1-3-2.3-3.9-3.9 0-.6 0-2-.6-2.6-3.2 0-4.8 7.7-8.3 6.8-2.5-1.2-4.6-3-6-5.5v-25c0-3.2-.4-10.6.9-12.9l10.5-7.4c3-.6 1.3 4.8 3.9 5.2l1.2-.4c.5-3.1.5-6.4 0-9.6-.3-1.6-1.9-3.2-1.2-4.8l4.1-.6c2.9-1 5.7-2.4 8.3-3.9v.3zM18.8.6c4.6 3.2 8.8 6.8 12.5 11C32.9 16 25.5 26.3 23 27c-2.6.6.6-5.8 0-8-.7-2.3-3.9-3.6-5.8-4.9-1-1-1.8-2-2.5-3.2h-.3a7 7 0 00-2.3 3.2c-2.5 6.5 2.3 13.2 3.9 18.7.7 1.8 1 3.8 1 5.7-.7 3.5-2.1 6.8-4.2 9.7l-2 3.2c1.3 2.2 10 7.7 13.5 5.4 1.2-1 3.1-5.7 5.4-5 .7 1.6.7 3.6 0 5.4L27 62.3a14 14 0 01-11.5 6.1C9.3 67.4 8 63.6 4.1 61c-1.3-.6-2.7-1-4.1-1.3v-1.9l2.2-2c3-2 5-5 5.5-8.6.6-4.8-3.2-10.6-4.5-13.8l-1.3-4.5c-.8-2-1.1-4-1-6.1C2.7 12.8 13.8 7.4 19 .3v.3zm414.3.7c2.6 1 4.9 3 6.4 5.4-1 1.7-4.2 6.8-6.4 5.2l-3.2-2.6h-2.5c0-1.3 4.7-7 5.7-8zm-327.8.6c.8-.1 1.6 0 2.3.3.3 2-7.4 12.3-4.2 14.8.6.7 2.2 0 3.2.7.6 2 .3 4-1 5.7-1 .7-2.2.4-2.8 1.7v32.7c.3 1.3 2.5 0 3.8.7.6 1.2-5.7 8.3-8.6 7.7l-2-1.3c-.9-.5-1.7-1.3-2.2-2.3V24.4l-2.2-1.3c.6-2.2 3.2-3.2 3.2-5.8s-2.2-5.7-1.6-7l3.8-2 8.3-6.4zm-23 12c1.6 0 5.2 4.7 5.5 6.3L87 46.6v9.6c0 1.3 2.3 1.6 2.3 3.2s-5.1 5.8-5.5 6.4c-.8.4-1.7.4-2.5 0-3.2-1.6-2.2-5.4-3.8-6.4-5.2-.6-8 13.5-14 3.2v-32c0-5.2.6-5.2-2.3-7.5l-.7-1.3L63 20c1-1.7 2-3.3 3.2-4.8l1.6-.6c1.6 0 3.8 2.5 4.1 3.5.7 3.7 1 7.5.6 11.2L71.8 48c0 3.2 0 8.3 1.6 9.6a8.6 8.6 0 004.8-4.5V34.7c.4-3.6.4-7.3 0-11-.3-.9-2-1.2-2.6-1.5l4.8-7.7 2-.7zm-35.7.2h.3c2 1.5 4.1 2.6 6.4 3.2 2.2 0 3.2-2.5 5.1-1l1 1-2.3 9c-.6 7-.7 14.2-.3 21.2v8.7l2 1.3c.2.3.6.6.2 1.3-1.7 2.6-3.8 4.9-6.3 6.7-4.2 1-4.8-7-5.8-7-2.5 0-5 8.3-8.6 7.3a7.7 7.7 0 01-4.8-5.7 51 51 0 010-16.1c.2-2.7 0-5.4-.6-8l.6-7.1c-.1-2 .2-4.2 1-6.1.6-1.3 1.9-1.6 3.2-2.6 3.1-1.7 6.1-3.8 8.9-6zm92 0c3.7.4 3.1 4.8 5.7 6.5 2.5-.4 2.2-5.8 5-6.5 1.3 1.3 1.3 2.6 2 4.5l1.9 3.2c1.3 3.3-1.6 5.8-2.9 7.7l-1.6 3.3c-2.8 1.2-1.2-9-4.4-7.4l-.7 1.3c-.6 1-.6 27.9 0 28.5 2.6 3.9 7-.6 8.3.4.3 2.9-3.8 4.8-5 6-1.2 1.2-2.2 2.5-3 4a8.6 8.6 0 01-3.8-1.4 8 8 0 01-4.8-4.5L135 52V24.7l-2-1.6 5.5-9zm157.3 0c1 0 1 1.3 1.2 2 3.9 6.4 1.3 8.6-.6 13.8-.6 1-.3 2.5-1 3.2-3.1.6-2.2-9-5-6.8-2 1.3-1 27.3.3 29 2.5 3.2 7-2.6 8 0 0 .9-8 10.2-11 9.6a19.2 19.2 0 01-6-5.5l-.3-28.9v-5.8c-.3-.6-2-.6-2-1.9 1.8-2.6 3.7-5 5.8-7.4 1.3 1.3 3.2 2 4.2 3.2l1 2.6h.6l4.8-7zm63.8.4c2.9.3 4.5 3.2 5.4 5.7l.3 2h.7c2.8-1.6 5-6.8 8.6-7.4 1 0 1.6 1 2 1.3 1.4 1 2.6 2.4 3.1 4.1v6.5l-.6 19.2c-.4 3.6-.4 7.1 0 10.6h1.6c1.9 3.2-4.5 8.4-6.4 9.7a7 7 0 01-4.2-4.2c0-9 .2-17.9.7-26.7.3-3.2 1-10.2-1.3-10.9-2.2-.6-3.5 2.3-4.2 3.2l-.3 5.2c-.8 6.1-1.2 12.4-1 18.6v5.4l2.3 2.3-2 2.6c-1.5 2.2-3.4 6.4-7 2.2l-1.5-2V25.8c-.4-1-2.3-1-2.3-2.3 1-3.2 4.5-6.4 6.4-8.3l-.3-.6zm-239.4.6c3.4.3 6.4 2 8.3 4.8 9 11.3-7.3 22.5-11.5 28.6a23 23 0 000 6.4 4.8 4.8 0 002.3 3c4.1 2.2 6.3-2.7 9.5-3.3.4 0 1.3 0 1.3 1 .3 1-10.5 11.2-11.8 11.2-1.7-.3-3.3-1-4.8-2-7-3.8-5-14.4-5-25.3v-9.6c-.2-1.8-.1-3.5.2-5.2 1.6-3.2 6.4-4.5 9-6.7l2.5-3zm272.3 0c5 0 8.6 6.4 7.6 12.2l-1 4.2c-.2 1-3.8 5.8-3.4 6.4l1.2 2c1 1.6 1.8 3.5 2.3 5.4 1.6 6.7.3 23.7-2.9 28-1.6 1.9-9 4.7-12.8 2.5a7.4 7.4 0 01-2.2-4.5c-1.3-3.2-1.3-10.6 3.2-10 1.3 2-.6 11 3.2 10 1.6 0 2.2-2.6 2.5-4.2.4-1.6 0-3.8 0-5.4.7-4.5 1.3-14.2-.6-17.4-1-2-3.8-.6-6-1.3v-.6l.6-1.3c3.2-3.2 8.3-5.8 6.7-12.5 0-1.3-.3-2.6-1.3-3-2.6-.5-4.2 2.3-6 3v-.3c-.3-.9-.3-1.8 0-2.6l8.9-10.6zm62.8 0c2.3.3 3.2 3.2 5.5 3.8 3.2.7 3.2-1.9 5.7-1.6 2 2.6-1 5.5-1.6 7.8v5.4c0 8-2.2 16-1.3 24.1l1 10.6.6 3.2a8.4 8.4 0 01-3.2 5.5 16 16 0 01-6.3 3.2c-6.4 1-15.7-1.6-14.7-7.7l4.8-.7c1.9-.3 3.8-1.6 5.7-2.2 1.3 2-1 6.7 2.2 6.7.8.3 1.6.3 2.3 0l.6-1.6c-.4-4.2-1.2-8.4-2.2-12.5-3.2.3-4.8 7.7-8.6 5.8a9.6 9.6 0 01-4.5-6.4l.6-30.2 1.3-3.2c2-3.3 5.4-5.2 8.6-7.1l3.5-3zm-20.7 0c5.1 0 3.8 9 3.2 13.8-.7 4.8 0 10.3 0 15.1v13.2l1.3 1.9-5.1 6.4c-2-.5-3.8-1.6-5.1-3.2l.3-32.1v-4.5c0-.6-3.2-2-2.9-2.9a24 24 0 018.3-6.7v-1zm-239 1c3.1.3 4 3.5 8.2 2.8l3.9-1.9c1.6 1.3 0 4.2-.3 5.5-3.2 7-.7 18-2.3 27.3v6.4c.7 1 2.6 1.3 2.6 3.2-2.3 3.2-5.1 10.3-9.3 4.5-1-1.3-1-3.8-2.2-5.4-2.6 0-5.1 8-7.7 8.6-2.4-1.1-4.3-3-5.4-5.4V34.4c-.3-3 0-5.9.6-8.7 1.3-3.2 5.5-4.8 8.7-6.8l3.1-2.8zm70.2 0c14.3.6 12.7 15 6.3 23-1.5 2.2-3.4 4.2-5.4 5.9l-3.2 1.9c-.9 2.2-1.1 4.7-.6 7 .4 1.1 1.2 2 2.2 2.6 1 .7 1.6 2 3.5 1.6 1 0 6.4-5.8 7-1.9v1l-6.3 5.1-3.2 3.9h-2.3c-3.8-.6-7.1-3-8.9-6.5v-34c1.3-3.2 5.8-5.1 8.3-7L266 16zm149 0c3 0 5.8 1.1 8 3.2 3.2 5.2 3.4 11.8.6 17.3l-8.6 9c-1.6 1.6-4.1 3.2-3.2 6.7.7 3.3 3.2 7.8 8 5.8 1.3-.3 3.5-3.2 5.4-2.2.1.8-.1 1.6-.6 2.2-1.3 2-4.2 2.6-6 3.9-2 1.3-2.3 3.5-4 4.8h-.5c-2.6-.5-5-1.5-7-2.9a8.6 8.6 0 01-3.3-3.2v-4.8c-.6-2.6 0-6.1-.3-9-.5-5.5-.5-11 0-16.4v-4.2c1.3-3.2 6.4-5.1 9.3-7.4l2.2-2.8zm66 .6c6 1.3 10.1 6.8 9.6 12.8-.3 2.3-1 4.5-2.2 6.5-2.5 4.5-7 7.4-10.2 11.2-.6 1-1.6 1.6-2 2.6-.4 2.1-.2 4.4.7 6.4 1.1 1.8 3 3 5.1 3.2 3.2.7 3.9-3.2 6.7-2.6 1.6 3.3-6.3 6.5-8 8-.9 1-.6 2.3-2.2 3-2.3.1-4.6-.7-6.4-2.3a10.3 10.3 0 01-3.5-4.5 72 72 0 01-.3-9.6c-.6-5.7-.6-11.4 0-17 0-2.4.2-4.8.6-7.1 1.3-2.6 9-9 12.2-10.3v-.3zm16.7.3c4.1.3 3.8 6.4 6 6.4 1.6-1.2 2.6-4.5 3.9-6 1.2 0 1.6 1.2 2.2 2.2 1 1.3 1.7 2.9 2.2 4.5.7 3.2-3.5 11.9-4.4 11.5-1.3-1.9-1.3-7-4.2-7.3-1.3 1-1.6 28.9 0 30.5 2 2.9 4.2-1.3 6.4-1.3.6.6.9 1.4.6 2.2-3.5 2-5.4 7.1-9.9 7.7-1.5 0-2.9-.7-3.8-1.9l-3.2-3.8V28.9c-.3-1.3-1.3-2.6-1.9-3.5l6-8.4zm-330 6.4a7 7 0 00-3.2 3.3c0 1 0 2.2-.7 3.2-.4 5.3-.5 10.7-.3 16v7a6 6 0 004.5 4c1.9-1.3 2.2-28 1.3-31.8-.4-.7-.7-1.3-1.6-1.3v-.4zm97.6.7c-2.5 2-1.6 9.6-1.6 13.8v4.8c5.5 1.6 9.3-18.6 1.6-18.6zm-145.5 0c-2.2 1.3-3.2 15-1.6 18.6 2.4-1.7 4-4.2 4.8-7 1.3-3.6 1-11.6-3.2-11.6zM44 24c-1.9 1.6-1.6 28.2-.6 31.8 6 2.2 3.5-20 4.5-24.7l1.9-5.8a52 52 0 00-5.8-1v-.3zm182 0l-1.3 1.6c-1.6.6-2.6-1-4.2-1-.3.4-1.6 27.6-1.2 29.3.5 1 1.4 1.6 2.5 1.9 1.8 0 3.4-1 4.2-2.6l1-19.9c0-2.2.6-8.7-.7-9l-.3-.3zm188.3 0c-2.3 1.6-2 10-1.6 13.8v4.8c4.8 0 8.3-17.3 1.6-18.3v-.3zm-221.2.6c-2 1.3-1.6 20-1.6 24.8 0 2.5-1 7.3 1.6 7.7 6 1.3 3.5-23.2 4.8-28.6.3-1.3 1.9-1.6 1.6-3.2l-3.2.6-3.2-1.3zm259.5 0c-1.6 1-2.6 26.7-1.6 29.6 0 .6.6 1.9 1.6 2.2l3.2-2.5.3-21c.6-2 1.2-4.2 1.6-6.3-1.6-1-3.3-1.5-5.1-1.6v-.4zm25.5.7c-.6.3-1 .6-1 1.3-.3 5.6-.3 11.3 0 17 4.5-1 9.6-18 1-18v-.3z" clip-rule="evenodd"/></svg>