<svg xmlns="http://www.w3.org/2000/svg" viewBox="0 0 512 66"><path fill="#aaa" d="M164.7 38.6l-7.2-.7c-4.9-.4-6.3-2.5-6.3-5.2 0-3.4 2.8-5.9 8.3-5.9 4.3 0 8.4 1 11.3 3.4l5.8-5.9a25.1 25.1 0 00-17-5.2c-9.6 0-17.3 5.1-17.3 14 0 8 5 12 13.6 12.7l7.3.6c4.4.4 6.1 2.4 6.1 5.5 0 4.3-4.4 6.3-10 6.3-4.5 0-9.5-1-13.2-4.8l-6 6c5.4 5.4 11.7 6.6 19.2 6.6 11 0 19-5 19-14.5 0-8.1-5-12.2-13.6-13zm-45 0l-7.3-.7c-4.9-.4-6.3-2.5-6.3-5.2 0-3.4 2.8-5.9 8.3-5.9 4.3 0 8.4 1 11.3 3.4l5.8-5.9a25.1 25.1 0 00-17-5.2c-9.6 0-17.3 5.1-17.3 14 0 8 5 12 13.6 12.7l7.3.6c4.4.4 6.1 2.4 6.1 5.5 0 4.3-4.4 6.3-10 6.3-4.5 0-9.5-1-13.2-4.8l-6 6c5.4 5.4 11.7 6.6 19.2 6.6 11 0 19-5 19-14.5 0-8.1-5-12.2-13.6-13zm-32 2.6c0-13-7.2-22-19.5-22-11.7 0-19.4 8.5-19.4 23.3C48.8 60 57.9 66 69.4 66c8 0 12.5-2.4 17.2-7.1l-6-5.5c-3.2 3.2-5.9 4.7-11 4.7-7.5 0-11.7-5-11.7-12.8h29.7v-4.1zm-29.8-2.4c.1-2.8.3-4.1 1.2-6.2a9.5 9.5 0 019.1-5.8c4.4 0 7.6 2.4 9 5.8 1 2 1.2 3.4 1.3 6.2H58zm293.5-11.4c3.6 0 5.9 1.1 8.8 4.3l6.3-6.1a18.8 18.8 0 00-15.1-6.5c-10.3 0-20.4 6.3-20.4 23.4C331 59.7 341 66 351.4 66c6.3 0 10.8-1.9 15-6.5l-6.2-6c-3 3.1-5.2 4.3-8.8 4.3-3.5 0-6.5-1.4-8.5-4s-2.7-6-2.7-11.3.7-8.5 2.7-11c2-2.7 5-4.1 8.5-4.1zM225.6 41.2c0-13-7.1-22-19.4-22-11.8 0-19.4 8.5-19.4 23.3 0 17.5 9.1 23.5 20.6 23.5 8 0 12.4-2.4 17.1-7.1l-5.8-5.5c-3.3 3.2-6 4.7-11.2 4.7-7.4 0-11.6-5-11.6-12.8h29.7v-4.1zm-9.1-2.4h-20.6c0-2.8.3-4.1 1.2-6.2a9.5 9.5 0 018.2-5.7h2.5c3.5.5 6.2 2.7 7.4 5.7 1 2 1.2 3.4 1.3 6.2zm226.3-19.7c-7.6 0-12 1.6-16.4 6.6l6 5.7c2.6-3.2 5-4.4 10-4.4 7.2 0 10.1 2.8 10.1 8.6v3.2h-12.1c-10.5 0-15.8 5.6-15.8 13.2a14 14 0 003.6 9.9c2.8 2.8 6.6 4.1 12.3 4.1 5.7 0 8.8-1.3 12.2-4.7v4.2h9V34.9c0-10.4-6.3-15.8-18.9-15.8zm9.7 29.9c0 3.2-.6 5.4-2 6.7-2.4 2.4-5 2.7-8.6 2.7-5.7 0-8.4-2.4-8.4-6.5s2.8-6.6 8.3-6.6h10.7V49zm-144-10.4l-7.2-.7c-5-.4-6.4-2.5-6.4-5.2 0-3.4 2.8-5.9 8.3-5.9 4.4 0 8.4 1 11.3 3.4l5.8-5.9a25.1 25.1 0 00-17-5.2c-9.5 0-17.2 5.1-17.2 14 0 8 5 12 13.5 12.7l7.3.6c4.5.4 6.2 2.4 6.2 5.5 0 4.3-4.4 6.3-10 6.3-4.6 0-9.5-1-13.2-4.8l-6 6c5.3 5.4 11.7 6.6 19.2 6.6 10.9 0 19-5 19-14.5 0-8.1-5-12.2-13.6-13zM9.6 0v20.7s6.7-1.4 12.5-1.3c9.6 0 14.5 5.2 14.8 11.8v34.3H26.9V35.1c0-3.4.2-7.5-7.5-7.5-5.5 0-9.4 1-9.4 1v36.9H0V.6L9.6 0zm377 0v20.7s6.5-1.4 12.3-1.3c9.7 0 14.6 5.2 14.9 11.8v34.3h-10.1V35.1c0-3.4.2-7.5-7.5-7.5-5.5 0-9.4 1-9.4 1v36.9h-10V.6l9.7-.6zM512 19.7v29.2c0 5.1 1.3 17.1-18.6 17.1-20 0-18.6-12-18.6-17.1V19.7h9.3v27.8c0 7 3 10.1 9.3 10.2 6.9-.2 9.4-3.2 9.4-10.2V19.7h9.2zM237 65.5V36.3c0-5.2-1.4-17.2 18.5-17.2 20 0 18.6 12 18.6 17.2v29.2h-9.2V37.6c0-7-3-10.1-9.4-10.2-6.8.2-9.3 3.2-9.3 10.2v27.9h-9.3z"/></svg>
