<svg xmlns="http://www.w3.org/2000/svg" viewBox="0 0 512 162.8"><g fill="#aaa"><path d="M462.4 38h-59.7c-4.2 0-4.7 4.2-4.7 4.6v22.7c0 .3.2 4.7 4.7 4.6h59.7c4.6 0 4.8-4.6 4.8-4.6V42.6s-.2-4.6-4.8-4.6z"/><path d="M0 0v162.8h445.5v-45.3H512V0H0zm137.7 105.8v26c-.4 8-6 9.2-9.3 9.2H30c-1 .1-9.3-.9-9.3-9.3V25.8c.6-8.9 8-9.3 9.1-9.3h98.4c4.2 0 9.4 3.1 9.4 9.3v27.6A4.7 4.7 0 01133 58h-15c-4.7-.4-4.6-4.6-4.6-4.6v-6.9s.3-7.7-8.2-8h-52c-.8 0-7.5.4-7.8 7.7v20.4l21.1 21V111c0 1.4.8 7 7 7.7h32.2c1.8 0 7.5-1.2 7.7-7.7l.1-4.7c0-2.4 1-5 4.6-5.2h15c4.4.2 4.6 4.2 4.6 4.6zm143.1-84.7v115.8s-.4 4.1-4.7 4.1H261c-1.3 0-4.5-.5-4.8-4.7V99.8c0-.5-1-7.3-7.9-7.3h-31.6c-7.5 0-7.9 6.6-8 7.8v31.4a9.3 9.3 0 01-9.4 9.3H172c-7.7-.2-9.5-7-9.4-9.3l-.2-110.6c0-.8.6-4.5 4.7-4.7h15.2c4.3 0 4.8 4.2 4.8 4.7v41.4c.3 7.3 7.2 7.8 8 7.8h53.3c1.3 0 7.8-.8 7.8-7.8V21.1s.3-4.7 4.7-4.7h15.3c4.2 0 4.7 4.2 4.6 4.7zM352 131.7c0 8.6-8.4 9.3-9.4 9.3H315c-7.7 0-9.4-7-9.3-9.3V21.1c0-.8.6-4.4 4.8-4.6h15.7c4.4 0 4.8 4.3 4.7 4.6v45.7l21.1 21v44zM491.2 83c0 2.3-1.2 9-9.4 9.3h-53.5c-7.1.3-8 6.5-8 7.7v31.8c-.6 8.4-6.9 9.3-9.4 9.3H383c-8.2 0-9.5-7.8-9.4-9.3v-106c0-1.1.7-9 9.4-9.2h98.8c6.9 0 9.5 6.1 9.4 9.3v57z"/></g></svg>
