<svg xmlns="http://www.w3.org/2000/svg" viewBox="0 0 512 76.5"><path fill="#004574" d="M54.8.6l13.6 8.6-2.5.9c-.6.4-1 1.3-1.3 2.1v22.3c0 9 .5 12.9-2.2 16.5-2.6 3.7-5.7 3.7-9.4 5.6-2.4 1-4.6 2.4-6.6 4 0 0-8.7-4.9-12.2-5.7l-9.4 5.8a9.1 9.1 0 00-3.3-6.4 9.6 9.6 0 00-6.8-2.2 10 10 0 00-6.9 3.1 9.5 9.5 0 00-2.5 7c.4 5.2 4.7 9.4 10 9.8 11.9.2 16.5-11.3 16.5-11.3-.1 4-1.9 7.7-4.8 10.5-3 2.7-7 4.2-11 4h-.2c-9.9 0-15.8-7-15.8-16 0-6.9 6-13.5 13-15.7V30.7c-2.7.2-5.1 1.5-6.4 3.6v-10c0-3.5 4.8-3.3 6.1-3.3v-6s-8.1.2-8.1-6.4S11.2.4 11.8 0L11 2.6c0 1.3 0 2.1 1.5 2.8 2.8.4 5.7-2.6 8.5-.5a9 9 0 012.2 4.3c4.2-2.6 8-5.3 11.6-8.6 4 1.5 7 4.5 8.6 8.4 4.1-2.1 8-5.1 11.4-8.4zM30.7 10.7h-.9v37.1a14 14 0 013.7 4.3l.2.4V14.1s-.6-3-3-3.4zM20.2 43.3c2.6.4 5.2 1.3 7.4 2.6V10.7l-4.4 2.4v25.7a5 5 0 01-2.8 4.5h-.2zm24.3 6.9l4.1 2.1-.4-41.6-4.4 2.2.7 37.3zm10.3-3.9v-33l-4.4-2.6v41.8c2.4-1 4-3.4 4-6l.4-.2zM126 25.7c.4-4.5-1.3-7.3-5-10.3l-6.6 5.6a8 8 0 00-6.2-5.6c-1.5 3.2-4 5.9-7 7.8l.9 1.2c2.6-2.1 2.4.5 2.4.5v25.7a3.7 3.7 0 01-2.2 2.8 23 23 0 018.1 7.7c2.6-3.2 6.2-5.8 10.1-7.5l-.7-1.7-3.2 1c-1.8 0-2-1.5-2-2.7V23.6c6.6 0 2.8 8.1 2.2 10.7-.7 3 2.6 5.8 5 3.9-1.3 0-3.3-1.8-1.3-4.3 2-2.6 5-5.4 5.5-8.2zm145.9 0c.4-4.3-1.5-7.3-5.3-10l-6.5 5.3c-.8-2.8-3-5-6-5.6-1.5 3.2-4 5.9-7 7.8l.9 1.2c2.6-2.1 2.4.5 2.4.5v25.7a3.7 3.7 0 01-2.2 2.8 23 23 0 018.1 7.7c2.9-3.4 6.4-6 10.3-7.7l-.6-1.7c-1.1.6-2.2.8-3.5 1-1.6 0-1.8-1.5-1.8-2.5V23.6c6.6 0 2.9 8.1 2.2 10.7-.7 3 2.6 6 5 4-1.3 0-3.2-1.9-1.3-4.2 2-2.4 5-5.6 5.3-8.2v-.2zm-54.1-9.2c-2.4 1.3-5 2.2-7.7 2.2-3-.5-5.7-1.6-8.1-3.3 0 0-10.5 6.5-14.9 6.5a6 6 0 01.9 3.2v11.3c0 1.3-.7 2.6-1.8 3.3a32 32 0 017.3 4.7c2.1-2.2 7.4-6.2 7.4-6.2l3.3 1.9v10.7a18.7 18.7 0 00-9-2.4c-5.5 0-9.9 5-11.4 9.7l-.6 2.6s4.3-4.3 8.7-4.3c3-.2 6.2 1.5 7.5 4.3 0 0 9-8.4 16-9.3 0 0-1.8-1.2-1.8-2.7V37c0-1 .7-2.2 1.3-3a31 31 0 01-9.4-4.3 69 69 0 01-7.4 6.4V24.7s2 3 9 2.1c9.4-.6 10.9-10.3 10.7-10.3zM88.3 30.2v22.3c-2.4-2.1-5-4-7.9-5.6V23.2s7.7 3.6 7.9 7zm9.6-3.4c0-6.2-9.8-11.4-9.8-11.4s-12.3 6-18.7 7.1l1.4 4.5v20.6c0 1.9-1 3.7-2.4 5 0 0 9.6 2 14.4 8 2.9-6 10-6 13.8-10.9 1.5-1.7 1.5-5.3 1.5-7.7L98 26.8zm81.3 22.3V27.9c0-4.1 2-4.7 2-4.7-3.7-1.5-7-4.3-9.2-7.6l-11.4 6.7a11 11 0 00-5.7-6.4l-11 6.4s-1.5-5.6-5.9-6.9l-10 7.1.8 1.3s2.2-1.3 3.3-.9c1.1.5.9 2.2.9 2.2v24.4A5 5 0 01130 53c3 2 5.8 4.4 8.1 7.2 2.5-2.7 5-5.1 8-7.5 0 0-3.4-1.7-3.4-3.4v-22c0-1 0-3 3.5-4.4 3.6-1.2 4.4 1.3 4.4 3.7v25.7c.2 3.4 2 6.7 5 8.4 2.7-2.8 5.5-5.4 8.8-7.5-1.5-.2-3.5-.7-3.3-3.9V27.4c.3-1.9 1.6-3.6 3.3-4.2 3.3-1.3 4.4 1.5 4.4 3.6v25.3c0 3.4 2 6.6 5 8.6 2.9-3 6-5.4 9.5-7.5-2.7-.7-4-.9-4-4.1h-.2zm331-22.5v28.3c0 4.3 1.6 4.7 1.6 9.2 0 7.3-7.5 12.4-13.6 12.4-10.5 0-12.3-6.6-12.3-9.4a5 5 0 015-5c2.7 0 4.9 2.2 4.9 4.8v.2c0 3.9-4.4 4.5-4.4 4.5 1.4 2.1 4 3.2 6.6 2.8 3.3-.4 5.9-3 5.9-6.2 0-6-4-6.5-4-11.8v-2.6a35.9 35.9 0 00-9.6 6.4c-2.4-.4-6.6-4.2-6.6-11.1V26.6c0-5 7.3-6.4 11.4-8.4l5.7-2.8a45 45 0 0011.2 6.7c-1.1 1.3-2 2.8-1.8 4.5zM500 49.3V27.7c.1-1.3-.2-2.5-1-3.4-.8-1-2-1.5-3.2-1.6h-.2c-2.2 0-2 2.6-2.2 3.2v20.6a6 6 0 003.3 5.2c3 1.3 3.3-1.3 3.3-2.4zM335.4 39c-.4-11.6-11.6-13.3-12.7-13.7 2.2-.9 12-5.6 8.3-17-2.2-5.8-8.9-8.8-14.9-6.6l-.6.2c-6.6 2.2-11 2.2-13.2 1.5-1-.4-2-1-2.8-1.9 0 0-1.3 10 6.8 11.8 6.6 1.3 9.4-1 13.6-.7 5 .7 7.9 8 .2 11.4-2.1.9-4.5.6-6.4-.6 1.6-.5 2.7-1.7 2.7-3.2.2-1.8-1.4-3.3-3.1-3.5h-.4c-1.8.2-3.3 1.7-3.3 3.5 0 3.6 4.3 5.1 4.3 5.1-2.6.4-5 2-6.7 3.9a8 8 0 00-1 9.2 8 8 0 012.8-5.7 8.4 8.4 0 016-2l1.4.2c12 1.7 9 16.5 6.5 19.5-3.2-4.5-8.4-7-14-6.9-9 .3-16.2 7.5-16.2 16.3.2 8.8 7.6 15.9 16.6 15.9 9-.3 16.3-7.5 16.3-16.3v-.9c-.3.7-5 13.5-16.7 13.7-9.2 0-13.1-6-13.1-10.7a9.5 9.5 0 019.2-9c4.3.2 8 3.5 9 7.5l6.5-3.4 9.2-3.6s6-4 5.7-14zm36-30.4A4.6 4.6 0 00375 14c2.6.5 5.2-1 5.7-3.6v-2A4.6 4.6 0 00377 3c-2.6-.4-5.2 1-5.7 3.6v2zM230.6 22.7c4.4-.2 4.4 14.6 1.3 17.2l-2.6 1.3V27.4c0-2.5 0-4.2 1.3-4.7zm8.1-7.3c-3.4 2.1-7 3.8-10.7 5-6 2.1-8.4 5.3-8.8 10.3V48c.9 11 11.4 12 16 12.9 0 0 7.2-8.2 11.2-10.5l-.7-.7a15 15 0 01-13.1 1.5c-3.1-1.3-3.5-4.7-3.5-7.9 0 0 7.4-3.2 10.7-6.9 2.2-2.7 4.4-6.2 3.3-10.2a65 65 0 00-4.4-10.8zM351.2 23c4.4-.2 4.4 14.6 1.3 17l-2.8 1.5V27.9c0-2.6 0-4.3 1.5-5zm8.1-7c-3.5 2.1-7 3.8-11 4.9-5.9 2.1-8 5.4-8.5 10.3v17.1c.9 11.2 11.4 12 16 12.9 0 0 7.2-8 11.2-10.3l-.5-.6c-3.9 2.5-8.8 3-13.1 1.2-3.3-1.2-3.7-4.5-3.7-7.7 0 0 7.4-3.2 10.7-6.8 2.2-2.8 4.4-6.2 3.5-10.3a51.1 51.1 0 00-4.6-10.7zm23.7 6.6c-2.7-2-5-4.3-7.3-6.6-2.2 2.5-7.4 7-7.4 7s2.2.3 2.2 3v25.8c0 1-2.4 3.2-2.4 3.2 3 1.7 5.7 3.8 8 6.4 2.7-2.8 5.5-5.1 8.8-7.3-1-.6-4.4-2.1-4.4-3.8V25.7c0-1.7 1-2.3 2.2-3.4l.3.2zm57.4.2c-2.6-2-5-4.4-7-7l-7.5 6.8s2.8 1.3 2.8 3.7L429 49c0 2-1.6 3.4-3.5 3.4h-.3c-4.3 0-3.9-4.3-3.9-9.4V22.5c0-5.4-6-6.9-6-6.9l-7.1 7s3.2.8 3.2 3.6c.5 18 .3 13.7.3 22.9.2 1.7-1 3.4-2.5 4.3 3.1 2.1 6.2 4.7 8.8 7.3 0 0 8.6-7.5 11-7.7 2 7.5 5.4 7.5 5.4 7.5s4.6-4.8 8-7.3c-3.4-.7-3.8-2.6-3.8-4.8V25.7c.2-1.3.7-2.3 1.8-3zm37.2.5c-3-2-5.5-4.5-7.4-7.6-2 1.3-12 6.3-12 6.3s-1-5-5.1-6.5c-2.7 2.4-9.5 7.3-9.5 7.3l1 1.3s1.5-1.3 3-.8c1.5.4.9 2.1.9 2.1v24.9c-.3 1.5-1.3 2.5-2.7 3.2 2.9 2.1 5.5 4.5 7.7 7.3 2.2-2.8 4.8-5.2 7.5-7.5a4.3 4.3 0 01-2.9-2.6V26.8c0-2 1.5-3.4 3.5-3.6 2-.3 3.7 1 4 3v25c0 6.5 6.5 9.7 6.5 9.7 2-3.2 4.8-5.8 8.1-7.5 0 0-4.8 0-4.8-3.7V26.4c.2-1.4 1-2.6 2.2-3.2zM403.8 5.6a5.1 5.1 0 00-2.7 4.3v7.7h4.2v2.8h-3.7v28c0 4.3 5.9 4.8 5.9 4.8a62.8 62.8 0 00-9.6 7.3c-2.5-2.8-5.4-5-8.8-6.5a4.3 4.3 0 002.6-3.8V20.4h-4v-3h4c0-3 .2-13.1 12.7-12l-.6.2z"/></svg>