<svg xmlns="http://www.w3.org/2000/svg" viewBox="0 0 512 478.6"><path fill="#aaa" d="M446.6 0H65.4C0 0 0 65.4 0 65.4v347.9c0 65.3 65.4 65.3 65.4 65.3h381.2c65.4 0 65.4-65.3 65.4-65.3v-348C512 0 446.6 0 446.6 0zM216.5 223.2c0-9.2.2-11.8.5-15.8 2-21 16.3-34.7 38.5-39.8 16.6-4 41-4.3 48-4.5V193c-3.5.2-9.3-.1-13.8.2-8.5.8-23.5 1.6-30.1 7.6-5.8 5.3-6.5 11-6.5 20.1v103.2h-36.6V223.2zM50 92.4l34.7-2.3v77.3s23.7-5.1 44.7-4.9c34.7.4 52.2 19.4 53.4 44.3.3 6.4.2 9.9.2 16.6v100.7h-36.6V221.3c0-12.6.8-28.2-27-28-19.7 0-33.6 4-33.6 4V324H50V92.4zm397.6 274.9A607.5 607.5 0 01251 401.6c-67.2 1.2-148.6-11.3-201.2-34.5v-20.9c55.3 24 130.5 36.6 197.7 35.5 72.5-1.3 148-13.8 200.2-34.7v20.3zm-64-38c-42.2 0-82-21.2-82.6-73.1h47.3c.8 22.3 16.8 32.4 35.4 32.4 20.4 0 35-12.2 35-34.5 0-20.6-13.1-34.2-36.5-34.2h-6.9v-39.4h7c22.9 0 32.7-13.6 32.7-31 0-21-14.6-31.7-31.7-31.7-17.8 0-31 11.1-32 30H304c1-44.3 35.7-70.8 79.4-70.8 46 0 79.1 29.3 79.1 71 0 27-12.8 42.3-29.9 51a58.9 58.9 0 0133.5 56.5c0 49.5-37.9 73.9-82.3 73.9z"/></svg>
