<svg xmlns="http://www.w3.org/2000/svg" viewBox="0 0 512 130"><path fill-rule="evenodd" d="M57 2H.6v7.2H5c3.7 0 4.8 1.2 4.8 5.3v36c0 4.2-1 5.4-4.8 5.4H.5V63h33V56h-5.8c-3.8 0-4.9-1.2-4.9-5.3V34.8h3c6.7 0 8.2 2.3 8.3 12.3h7.3V16h-7.5c-.1 9.4-1.7 11.4-8.4 11.4h-2.7V9H37c9.3 0 12.2 4 13 18.2h7V2zm17.5 17.8H58.7v6.6h.2c3.6 0 4.9 1.4 4.9 5.1v20c0 3.7-1.3 5-4.9 5h-3.1v6.6H84v-6.6h-4.3c-3.6 0-4.9-1.3-4.9-5v-10c0-5.5.7-9 2.3-12 1.7-3.2 5.2-5.5 8.1-5.5.9 0 1.4 0 2.6.5-3.2 1.1-4.8 3.2-4.8 6 0 3.6 2.7 6 6.5 6 4.5 0 7.4-3.1 7.4-7.9 0-5.8-4.7-10.2-11-10.2-4.7 0-8.9 2.7-11.4 7.6v-6.2zm69.8 26.6h-6c.1 8.4-.2 9.9-2.4 9.9-1.5 0-2-1-2-4.3V31.7c0-4.4-.9-7.2-3.1-9.4-2.6-2.6-8.5-4.3-14.7-4.3C104.8 18 98 22.5 98 30a7 7 0 007.1 7.2c3.8 0 6.3-2.5 6.3-6 0-3.3-1.7-5.2-4.4-5.2l-1.6.3c1.7-1.8 4.2-2.6 7.9-2.6 6.4 0 10 2.4 10 6.9 0 3.3-1.4 4.8-6.2 6.2l-5.4 1.7-5.5 1.6c-7 2.3-10.4 6.3-10.4 12.7 0 7 5.1 11.5 13.3 11.5 5.7 0 10.1-2.1 14.2-6.7 1.5 4.6 4.4 6.5 9.7 6.5 5 0 8.8-2.1 10.3-5.9.7-2 1.1-5 1.1-9.5v-2.3zM123 45.2c0 6.8-3.7 11.2-9.7 11.2-3.2 0-5.1-2-5.1-5.2 0-3.6 1.3-5 7.8-7.8l3.2-1.5 3-1.2.8-.6v5zm41.8-25.4h-19.1v6.6h3.1c3.6 0 4.9 1.4 4.9 5.1v20c0 3.7-1.3 5-4.9 5h-3.1v6.6H172v-6.6h-2.3c-3.5 0-5-1.4-5-5V40c0-8.2 4.5-14 10.7-14 5 0 6.8 2.7 6.8 10v15.3c0 3.8-1.3 5.1-4.8 5.1H175v6.6h26.5v-6.6h-3.3c-3.6 0-4.9-1.3-4.9-5V31.1c0-8.1-5.2-13-13.8-13-6.7 0-10.8 2.2-14.8 8v-6.4zm65 0v6.6h5.8c1.8 0 2.4.2 2.4 1 0 .4-.2.7-.8 1.2l-1.1 1-1 .8-12.4 10.7V2h-19v6.5h3.1c3.6 0 5 1.4 5 5.2v37.7c0 3.8-1.4 5.1-5 5.1h-3.1v6.6h25.9v-6.6h-2c-3.6 0-4.9-1.3-4.9-5V50l8.6-7 6.7 10.5c.4.7.7 1.5.7 1.8 0 1-.8 1.2-3.5 1.2H233v6.6h27.4v-6.6h-1c-4.3 0-6.5-1.2-9.8-5.9l-10.5-14 8.6-6.8 1.5-1.3c1.8-1.4 4-2.1 6.9-2.1h1v-6.6h-27.3zm60.8 6.6v-6.6h-9.8v-7c0-4.9 2-7.3 5.9-7.3 1.4 0 2.6.2 4.3 1-3 .2-4.7 2-4.7 5.1 0 3.3 2.4 5.6 6 5.6 3.8 0 6-2.4 6-6.7C298.3 4.4 292.8 0 285 0c-9.2 0-15.2 6.1-15.2 15.7v4.1h-8.1v6.6h8.1v25c0 3.8-1.3 5.1-4.9 5.1h-3.2v6.6h27.6v-6.6h-3.6c-3.6 0-4.9-1.3-4.9-5V26.3h9.8zm20.3-6.6h-19v6.6h3.1c3.6 0 4.9 1.4 4.9 5.1v20c0 8.5 5.1 13.4 13.8 13.4 6.1 0 10.5-2.5 14.7-8.1v6.3h19.4v-6.6h-3.2c-3.6 0-4.9-1.3-4.9-5V19.7h-20.3v6.6h4.4c3.6 0 4.9 1.4 4.9 5.1v9.2c0 10.1-3.7 15.3-10.9 15.3-4.6 0-6.9-2.5-6.9-7.4V19.8zm57.7 0h-18.7v6.6h3.1c3.6 0 5 1.4 5 5.1v20c0 3.7-1.4 5-5 5h-3.1v6.6H378v-6.6h-4.3c-3.6 0-4.9-1.3-4.9-5v-10c0-5.5.7-9 2.3-12 1.8-3.2 5.3-5.5 8.2-5.5.8 0 1.3 0 2.5.5-3.1 1.1-4.8 3.2-4.8 6 0 3.6 2.7 6 6.5 6 4.5 0 7.4-3.1 7.4-7.9 0-5.8-4.7-10.2-11-10.2-4.7 0-8.8 2.7-11.4 7.6v-6.2zm23.6 6.6h7.5v26.1c0 8.6 3.6 12.5 11.5 12.5 8.3 0 12.9-4.9 12.9-13.8v-8.5h-6.5v7c0 4.8-1 6.6-3.6 6.6-2.4 0-3.3-1.5-3.3-5.5V26.4h12v-6.6h-12V3.2h-6.1C403.6 15 401 18.7 392 20.7v5.7zm68 21c-.6 5.9-4.6 9.6-10.5 9.6-6.7 0-10-4.8-10.3-14.4h29v-1.8c0-13.5-8.2-22.6-20.2-22.6-12.8 0-21.4 9.8-21.4 24.2 0 14.3 7.9 22.3 21.8 22.3 11.4 0 18.5-6.4 19.6-17.4h-8zM439.4 36c.3-7 3.4-11 8.6-11 4.7 0 7.7 4 8 11h-16.6zm50.1-16.2H471v6.6h3.2c3.5 0 4.8 1.4 4.8 5.1v20c0 3.7-1.3 5-4.8 5h-3.2v6.6h28.2v-6.6h-4.3c-3.6 0-4.8-1.3-4.8-5v-10c0-5.5.6-9 2.3-12 1.7-3.2 5.2-5.5 8-5.5 1 0 1.4 0 2.6.5-3.1 1.1-4.7 3.2-4.7 6 0 3.6 2.6 6 6.5 6 4.4 0 7.3-3.1 7.3-7.9 0-5.8-4.7-10.2-11-10.2-4.6 0-8.8 2.7-11.4 7.6v-6.2zM169.3 91.2L158 72.8h-11V76h1.9c1.6 0 2 .6 2 2.3v15.4c0 1.7-.4 2.2-2 2.2h-2V99h12.6v-3h-2.4c-1.6 0-2-.6-2-2.3V78.2l12.5 20.7h5.6V78.2c0-1.7.5-2.3 2.1-2.3h1.9v-3h-12.6v3h2.5c1.6 0 2 .6 2 2.3v13zm21.8 1c-.2 2.5-2 4.1-4.5 4.1-2.8 0-4.3-2-4.3-6.1h12.3v-.8c0-5.7-3.5-9.6-8.6-9.6-5.4 0-9.1 4.1-9.1 10.3 0 6 3.3 9.5 9.3 9.5 4.8 0 7.9-2.7 8.4-7.4H191zm-8.8-4.8c.2-3 1.5-4.8 3.7-4.8 2 0 3.3 1.8 3.4 4.8h-7zm21.5-7h-8v2.9h1.3c1.5 0 2 .5 2 2.1V94c0 3.6 2.2 5.7 6 5.7 2.5 0 4.4-1 6.2-3.5V99h8.3v-2.8h-1.4c-1.5 0-2-.6-2-2.2V80.5h-8.7v2.8h1.8c1.6 0 2.1.5 2.1 2.1v4c0 4.3-1.5 6.5-4.6 6.5-2 0-3-1-3-3.2V80.5zm31 11.8c-.2 2.5-1.9 4.1-4.4 4.1-2.8 0-4.3-2-4.4-6.1h12.4v-.8c0-5.7-3.5-9.6-8.7-9.6-5.4 0-9 4.1-9 10.3 0 6 3.3 9.5 9.2 9.5 4.9 0 8-2.7 8.4-7.4h-3.5zm-8.7-4.8c.1-3 1.5-4.8 3.6-4.8 2 0 3.3 1.8 3.4 4.8h-7zm29.2-.2h6c5.7 0 8.7-2.5 8.7-7.2a7 7 0 00-1.8-5c-1.6-1.6-3.3-2.2-6.6-2.2h-15.8V76h2c1.5 0 2 .6 2 2.3v15.4c0 1.7-.5 2.2-2 2.2h-2V99h13.9v-3h-2.3c-1.6 0-2-.6-2-2.3v-6.4zm0-3.1v-8.3h4c3.5 0 5 1.2 5 4.1 0 3-1.4 4.2-5.2 4.2h-3.8zm23.5-3.6h-8v2.8h1.4c1.5 0 2 .5 2 2.1V94c0 1.6-.5 2.2-2 2.2h-1.4V99h12v-2.8H281c-1.5 0-2-.6-2-2.2v-4.2c0-2.3.3-3.9 1-5 .7-1.5 2.2-2.5 3.4-2.5.4 0 .6 0 1.1.3-1.4.4-2 1.3-2 2.5 0 1.5 1 2.6 2.7 2.6 2 0 3.2-1.3 3.2-3.4 0-2.5-2-4.4-4.7-4.4-2 0-3.8 1.2-4.9 3.3v-2.6zm24.5 11.7c-.2 2.5-2 4.1-4.4 4.1-2.9 0-4.3-2-4.4-6.1h12.3v-.8c0-5.7-3.5-9.6-8.6-9.6-5.4 0-9.1 4.1-9.1 10.3 0 6 3.4 9.5 9.3 9.5 4.8 0 7.9-2.7 8.4-7.4h-3.5zm-8.7-4.8c0-3 1.4-4.8 3.6-4.8 2 0 3.3 1.8 3.4 4.8h-7zm14 11.7h2.8l.8-1.6a8 8 0 005.8 2c4.8 0 7.7-2.2 7.7-6 0-3-2-5-6-6l-4.3-1c-1.2-.3-1.7-1-1.7-1.8 0-1.1 1-1.8 2.8-1.8 2.7 0 4.3 1.2 5.5 4.2h2.8v-7h-2.4l-.8 1.7a7 7 0 00-5.3-2c-4.6 0-7.4 2.2-7.4 6 0 2.6 1.8 4.5 5.3 5.4l4.7 1.2c1.4.3 2 1 2 2 0 1.3-1.2 2.2-3 2.2-1.6 0-3.1-.6-4.3-1.7-.9-.7-1.3-1.5-2-3.4h-3V99zm19 0h2.6l.8-1.6a8 8 0 005.8 2c4.8 0 7.7-2.2 7.7-6 0-3-1.9-5-6-6l-4.3-1c-1.1-.3-1.7-1-1.7-1.8 0-1.1 1-1.8 2.8-1.8 2.8 0 4.3 1.2 5.5 4.2h2.8v-7h-2.4l-.7 1.7a7 7 0 00-5.3-2c-4.7 0-7.5 2.2-7.5 6 0 2.6 1.9 4.5 5.4 5.4l4.6 1.2c1.4.3 2 1 2 2 0 1.3-1.2 2.2-3 2.2-1.6 0-3-.6-4.3-1.7-.8-.7-1.3-1.5-1.9-3.4h-3V99zm32.8-7c-.2 2.6-2 4.2-4.5 4.2-2.8 0-4.3-2-4.3-6.1h12.3v-.8c0-5.7-3.5-9.6-8.6-9.6-5.4 0-9.1 4.1-9.1 10.3 0 6 3.3 9.5 9.3 9.5 4.8 0 7.9-2.7 8.3-7.4h-3.4zm-8.8-4.7c.1-3 1.5-4.8 3.7-4.8 2 0 3.3 1.8 3.4 4.8h-7z" clip-rule="evenodd"/><path fill="#DE0024" d="M0 112h509.9v18H0z"/></svg>
