<svg xmlns="http://www.w3.org/2000/svg" viewBox="0 0 512 94.9"><path fill="#055FA5" fill-rule="evenodd" d="M55.3 0c1.6 0 7.5 3.8 9.7 4.4 2.3 1.3 5.6 2 8.2 3.2h.3L58 25c0 .6 5.8 4 6.5 4.7A18.3 18.3 0 0169.6 46c0 3.8-.2 7.6-1 11.3-2.1 4-5 7.5-8.4 10.5L52 77.2c-1.3 1.2-2.6 3.8-4.5 4.4-3 .6-6.2.6-9.2 0-9-1.3-18.2-2-24.7-5.7a20 20 0 01-7.2-6.3C2 62.6-2 40.2 1.2 29 4.5 18 12.9 14.5 24 10l9.8-4.4c.6 1 0 10.1 0 12v39.9c-2.3 3.8-8.8 6.3-11.4 9.4-.3 2 13 5.7 14 3.2 1.6-4.7.6-10.4 1.3-16.4V12.7A273 273 0 0155 0h.3zm79.5 1.9c2.6 0 11 3.2 10.4 6.3-.7 5-6.5 10.1-9.1 14l-2.3 2.8c0 1.6 1.6 3.1 2.3 4.4l3.9 10.8a39.1 39.1 0 01-3 32.5c-1 1.6-6.5 8.9-7.8 8.9-3-.3-4.2-6.3-5.8-7-1.3 1 0 9.5-.7 11.7a35 35 0 01-9.1 7.3V65.1c0-10.4-.7-21.5 0-31.3 1-6 0-11.7 2.3-15.8 2.2-6.3 7.8-8.5 12.3-11.7l6.6-4.4zm141.3.6l6.6 1.3c8.4 1.4 16.8 3.1 25 5.4 3.3 1 9.8 2.2 11.1 5.3.9 4.3.9 8.7 0 13V58c-.3 3-.3 5.9 0 8.8.7 1.6 2.6 4.1 2.6 5a88.7 88.7 0 01-8.5 9.6c-.9-.9-1.6-2-2-3.2-2.8-5.4-3.2-8.8-3.2-17 0-2 0-11.1-.6-11.4h-11.7l-1.7 13.5a44.8 44.8 0 01-14.3 16.5l3-4.8 1.9-6.6c1.3-6.6 0-15.2.6-22.1V21.5c.7-2.2 8.2-2.8 8.8-5-1.6-2-15.6-2.6-19.8-3.2-1.7 0-8.2 0-8.5-.7 3-3.4 5.8-8.5 10.7-10zM426.6 8l.4.3a40 40 0 01-6 9.5L417 20c-.7 0-2 1-2.3.7-.3-.4 5.5-12 5.5-12l6.5-.7zM48.8 8c-1 1-.7 19-.7 22.1 0 .7 0 1 .7 1.3s14-14.2 15-15.5v-.6l-1-.7c-4.7-1.4-9-3.5-13-6.3l-1-.3zm39.4 1h2.6c-.7 4-7.8 12-12 12.6H78c1.8-4.4 4-8.6 6.5-12.6h3.6zm39.7.6c-4.2 1.9-4.2 10.7-4.2 17.7 0 1.6-.3 4.4 0 5h.6c2.6-2 4.8-4.5 6.6-7.2 2.6-3.5 10.4-10.8 2.2-14-1.6-.8-3.4-1.3-5.2-1.5zM23 13.3c-2.6.7-4.8 2.4-6.2 4.7-4.8 7.3-4.5 27.2-2.2 37.3 1 3.5 3.2 11.1 6.5 11.7 2 .7 2.3-7 2.6-9.1.7-10.8.8-21.5.3-32.3 0-2.5.7-12.3-1-12.3zm273 3.1c-1 .7-.6 9.2-.6 11.4-.3 4.6-.2 9.1.3 13.6 1 .7 4.2 0 5.5 0h6.5c1 0 .7-8.5.7-10.4V20.6c-1.3-2-9.8-3.8-12.4-4.2zm-15 5.1c1 .3 0 18 0 20.9v15.8c0 4-.3 8-1 12-2 6-5.7 11.2-10.7 15.2a71.5 71.5 0 01-10.4 7.6c-.7 0-1 .3-1.3 0a32.5 32.5 0 0012-16.8c.5-3 .8-6 1-9.2.2-5.4.1-11-.3-16.4h-6.9V50c1-3.2 6.5-5 7.2-8.3.2-5.2 0-10.5-.3-15.8.3-1 9.4-3.8 10.7-4.4zm-26.7 1.3c1.3 0 2.3 1.9 3 3.1l1.9 4.8c.3 2.2-5.2 9.5-6.5 11h-.3c-.7-1.9-2-7.9-3.6-8.2-3 1.6-5.2 10.8-5.9 14.9v15.8c-.3 3.2-.2 6.4.3 9.5a5.8 5.8 0 003.3 3.1c-3.1 1-6.2 2-9.1 3.2l-4.3 1.6h-.3V30.7c3.3-2.4 6.8-4.5 10.4-6.3h.4c.3 2.2-.4 9.4.6 10 1.3-.6 1.6-2.5 2.3-3 1.3-3.3 4.2-7.7 7.5-8.6h.3zm252.8.6c1.6 0 5.2 7.3 4.9 9.5-1.8 3.4-4 6.6-6.5 9.5-1.3-1.3-1-7.3-3.3-7.6-1.3 0-3.6 5.4-4.2 6.6-2.3 6.4-1.7 15.8-1.7 24.7-.4 3-.4 6 0 8.8.7 1.2 1.8 2 3 2.6v.3l-7.5 2.5-5.6 2.2-.6-.3V31.6l10-6h.7c.7 2-.6 8.6.7 9.5 1-.6 1.3-1.9 2-2.8 1.6-2.6 5.2-8 8-8.9zm-141 0c3.2 0 15.6 1.3 16.9 3.2s-2.3 9.5-3.3 11c-2.3 7.3-4.9 14.9-7.8 22.2-.6 2.5-3.3 7.2-3 10.4.4 3.2 15.7 8 16 9.5-2 2.7-4.4 5.2-7.1 7.3-5.7-2.6-11.3-5.4-16.6-8.6a4.1 4.1 0 01-1.7-2.2c-.6-2.2 2.6-8.5 3.3-10.4 3-7 4.9-14 7.2-20.9.6-2.2 3.5-9.5 2.2-11-2.2-2.6-8.1-.4-11.4-1.3 0-2 3.6-8.9 5.2-9.5v.3zm-259.4 0c3.6 0 5.3 10.8 4 14.5-1 3.2-2.5 6.1-4.3 8.9-2.6 4.1-8.1 8-5.8 15.2a20 20 0 006.8 8.2l2.3 1.9c-2.2 3-4.7 6-7.5 8.5h-.7a19.4 19.4 0 01-4.9-4c-2-2.5-3.6-5.1-4.8-8-2.3-5.4-1.3-14.5-1.3-21.5 0-4.4-.7-10.1 1-13.6a50.5 50.5 0 0115-9.8l.2-.3zm117.3 0c3.3.3 6.5 7.3 5.6 11.4A60 60 0 01222 49l-4.3 6.3c-.4 3.6-.2 7.3.7 10.8 1 2.4 2.6 4.5 4.9 6 1 .6 2.2 1 3.2 1.9 0 1.3-2 2.2-2.6 3.2-.6 1-2.6 3.8-4.2 4-1.6.4-6.5-3.4-7.5-4.4-2.1-2.3-3.6-5.1-4.2-8.2-.6-3.1-.8-6.3-.7-9.5V43.3c-.4-3.7-.2-7.4.7-11 1.3-2.6 12.3-7.6 16.2-8.6l-.3-.3zm129 0a4 4 0 013.6 1.6c1 1.6.3 12 .3 14.8v34.8a48 48 0 01-8.4 6.4c-2.7-2.3-1.7-30-1.7-36.4 0-2.2.7-11-1-11.4-2.2 0-5.2 6.3-5.8 8.5-3 6-2.3 15.5-2.3 24.4v8.5c-3 2.6-6.3 4.8-9.8 6.7h-.3V35.7l-2.6-5 13-6.3.4.3c1 1.5-.7 10.7.6 12.6l9.1-10.7c1.5-1.3 3.1-2.4 5-3.2zm-156.7 0c5 0 4 6.3 4 11v34c0 1.8 2.2 5.6 2.2 6.2-2.9 2.5-6 4.6-9.4 6.4-5-2.9-3.3-27.6-3.3-36.4 0-2.2.3-12-.6-12.7-1.7 0-4 4.8-5 6.4-3.7 7.9-5.2 16.6-4.5 25.3v11A91 91 0 01171 81l-.6-.4v-49a49 49 0 0110-6.3c0 2.2-.3 11.7.7 12.6 1.3-.6 2.3-3.1 3-4 2.9-4.6 7.2-8.2 12.3-10.2v-.3zm244.3.6l15.7 2c-.7 1.1-1.3 2.4-1.7 3.7l-.6 36c.3 4.3 0 8.6-.7 12.7-1.3 4.1-5.5 7-8.1 9.5-1 1-6.8 7.3-8.1 7-4.6-.7-15.4-6-16.3-9.5 0-2.2 11-9.5 11-11.7 0-1.3-3.2-4.4-4.2-5.4l-2.6-5.7V36.7c1-2.9 13-11.4 16-12.7h-.4zm-278.5 0c3.3 0 5.9 7.3 5 10.8-1.7 4.9-4 9.6-7 13.9-2.2 3.2-5.5 7.3-3.8 14 1 2.8 2.6 5.4 4.8 7.5l2.3 2.5c-2.1 3.1-4.5 6.1-7.1 8.9h-.7c-2.6-.6-8.5-9.5-9.8-12.7V59c0-8-1.3-20.6 1.3-26.3 1.3-2.9 11.8-7.3 15-8.2V24zm236.2 0c2.3 0 7.5 7.6 6.5 10.8-2.6 5.6-5.6 11-9.1 16.1-2 3.5-4.9 6.7-4 12.7.4 3.4 12.5 9.5 12.5 10-2.1 3-4.5 5.8-7.2 8.3-3.3.6-13-9.5-14.3-11.7a23 23 0 01-.4-7V40.8c.5-2.8 1.5-5.5 3-8 3.6-3.6 8-6.6 13-8.4V24zm78.2.7c2 0 6.5 7.9 5.8 11-2 6.7-7.1 11.7-10.4 17.4-1.9 2.3-2.8 5-2.6 8 .8 3.9 3.3 7.3 6.8 9.4l4 2.6c0 1.5-2.7 3.1-3.3 4l-4.6 5.1c-1.3.7-7.1-5.4-7.8-6.3-1.9-2.2-3.2-4.8-3.9-7.6-1.3-5.4-.6-13.3-.6-19-.4-4.4-.1-8.9.6-13.2 1.3-5.1 11-9.5 16.3-11.4h-.3zm-392.6 0h.4v39.5c.3 2.6 1 5.1 2 7.6l1.2 3.1a43 43 0 01-9 6.4C73.1 78 74.7 51.5 74.7 42V30.4c2.8-2.3 5.9-4.2 9.1-5.7zm335 0l.2.3v40.8c0 3.5 3.3 6.3 3.3 8.8-1.9 2.1-4 4-6.5 5.4-2.6 1.6-2.6 1.3-4.3-1-1.5-1.8-2.6-4-3.2-6.3V31c3.3-2.2 6.8-4.3 10.4-6v-.3zM218.1 29c-.6 7-.6 14.1 0 21.2 1.6-.3 5.2-8.2 5.5-10.5.3-3.1-3.6-10.7-5.9-10.7h.4zm-117.3.6c-.7 7-.7 14 0 20.9 1.3 0 2-1.9 2.3-2.5 3.9-6.4 4.2-9.2 0-15.8 0-1-1-2.6-2-3.2l-.3.6zm55.4.3c-.7 7-.7 14 0 21 1 0 1.3-2 1.6-2.6a29 29 0 003.2-6.7c.7-3.1-3.2-11.3-4.8-11.7zm236.1 1c-1 .6-.6 15.8-.6 19l.3 1.2c1.3 0 6.5-9.5 5.9-12.6-.5-2.2-1.6-4.2-3.3-5.7-.3-.6-1.3-2-2.3-2zm77.6 0c-.6 6.8-.6 13.7 0 20.5 1.3-.6 2-2.5 2.6-3.7 3.2-6.4 3.9-8.3 0-14.6-1-.6-1.3-1.9-2.6-2.2zm-34.2.6c-1.7.7-1 7-1 9.5 0 9.5-.7 18 3.2 23.4.7.3 1.3 1.6 2.3 1.3 1.4-.9 2.5-2 3.3-3.5l.6-29.4c-.6-1-6.5-1.3-8.4-1.3zM48 33.6c-2 .9 0 24-1 28.4-.3 2.2-5.8 5.7-7.8 7-1 .9-2.6 1.2-3.2 2.2 1 1.5 15.6 1.5 17.5.6C59 69.3 59 57.2 59 49.3c.2-3.2-.1-6.4-1-9.5-2-3.5-5.6-5.9-9.8-6.3zm77.2.6c-3.2 1.9-2.3 7.5-2.3 12.6 0 11-.3 15.8 4.3 22.5.6 1.2 1.6 2.8 3.2 3.1 1-.6 1.3-2.2 1.7-3.5 2.9-9.4 0-21.1-3-28.4-.6-1.3-2-6.3-3.9-6.3zM443 66.4c-4.6 4-9 8.1-13 12.7-.7 2.2 10 7.9 13 8.2h.3c.6-7 .6-14 0-20.9h-.3z" clip-rule="evenodd"/></svg>
