<?xml version="1.0" standalone="no"?>
<!DOCTYPE svg PUBLIC "-//W3C//DTD SVG 20010904//EN"
 "http://www.w3.org/TR/2001/REC-SVG-20010904/DTD/svg10.dtd">
<svg version="1.0" xmlns="http://www.w3.org/2000/svg"
 width="91.000000pt" height="91.000000pt" viewBox="0 0 91.000000 91.000000"
 preserveAspectRatio="xMidYMid meet">
<metadata>
Created by potrace 1.11, written by Peter Selinger 2001-2013
</metadata>
<g transform="translate(0.000000,91.000000) scale(0.100000,-0.100000)"
fill="#000000" stroke="none">
<path d="M0 455 l0 -455 455 0 455 0 0 455 0 455 -455 0 -455 0 0 -455z m538
168 c31 -23 49 -50 39 -59 -4 -4 -16 5 -27 19 -45 56 -123 56 -182 0 -20 -19
-28 -22 -28 -12 0 19 36 54 70 68 34 15 98 6 128 -16z m-32 -47 c10 -8 16 -18
11 -22 -4 -4 -13 -2 -19 4 -15 15 -64 16 -73 2 -3 -5 -13 -10 -22 -10 -14 0
-14 3 2 20 21 24 72 27 101 6z m59 -49 c54 -13 77 -41 73 -87 -5 -43 -88 -40
-88 3 0 42 -14 50 -90 51 -57 0 -75 -3 -85 -17 -6 -9 -30 -21 -51 -27 l-39
-10 43 5 c33 4 42 2 42 -10 0 -16 -37 -29 -67 -23 -22 4 -28 44 -10 78 15 29
80 48 167 48 30 0 77 -5 105 -11z m-135 -67 c0 -5 14 -10 30 -10 17 0 30 5 30
10 0 6 9 10 20 10 12 0 20 -7 20 -16 0 -9 14 -40 31 -68 18 -28 34 -70 37 -93
l5 -43 -143 0 -143 0 5 43 c3 23 19 65 37 93 17 28 31 59 31 68 0 9 8 16 20
16 11 0 20 -4 20 -10z"/>
<path d="M407 382 c-23 -25 -21 -65 4 -93 l21 -24 -16 25 c-21 32 -20 69 1 92
9 10 14 18 11 18 -3 0 -12 -8 -21 -18z"/>
<path d="M500 380 c23 -23 25 -51 8 -83 -10 -20 -10 -21 5 -8 23 18 22 74 -1
94 -26 24 -36 21 -12 -3z"/>
<path d="M424 356 c-3 -8 -4 -23 -2 -33 3 -11 6 -6 9 15 6 34 2 42 -7 18z"/>
<path d="M489 338 c4 -28 6 -29 9 -9 2 13 0 27 -5 32 -6 6 -7 -3 -4 -23z"/>
</g>
</svg>
