<svg xmlns="http://www.w3.org/2000/svg" version="1.0" viewBox="0 0 2212 2212"><path d="M1108 1a766 766 0 01-63 2l-13 1-10 1-10 1-9 1-8 1a170 170 0 01-14 2l-13 2-7 2-9 1-17 4-15 3-10 2a735 735 0 00-386 240l-17 20a5591 5591 0 00-37 48l-10 12-10 13a621 621 0 00-29 37l-10 22c-2 18 4 34 18 47 13 13 30 20 44 19 8 0 11-1 19-5 12-6 22-16 34-34l19-31a730 730 0 01109-125l21-18a692 692 0 01322-145l8-2 6-1 16-2 18-2a364 364 0 0128-2 1217 1217 0 01125 5l20 3 6 1 5 1 47 11 15 3 35 11a669 669 0 01361 293c20 29 32 39 51 45 22 8 42 2 54-15 11-17 12-50 2-74a788 788 0 00-541-388l-8-1-9-1-15-2-14-3-28-2-71-1z"/><path d="M1109 313a533 533 0 01-50 3l-8 1a464 464 0 00-298 157c-6 8-13 23-15 30-5 21 3 42 23 57 10 8 20 11 32 11 16-1 32-9 50-27l23-21c14-13 42-34 53-40l9-5a286 286 0 0163-30 266 266 0 0154-15l12-2a299 299 0 0196-2 384 384 0 01187 81l14 11c26 24 35 31 50 35 13 5 25 4 37-1 8-4 15-9 21-17 9-12 13-20 13-33 0-22-12-41-46-71a477 477 0 00-245-116l-9-1-11-1a187 187 0 00-18-3 251 251 0 00-35-1l-2-1zM1042 608h-22l-53 2-18 2-59 4-12 1a353 353 0 00-43 4 192 192 0 00-21 2l-9 1h-8a380 380 0 00-19 3l-8 1-8 1-8 1-8 1-9 1a311 311 0 00-20 3l-7 1-7 1-6 1a387 387 0 00-45 7l-12 2-11 1-6 1-6 1a278 278 0 00-16 3l-22 4-49 11-24 5-15 3a660 660 0 01-37 9l-54 13-4 1-92 27c-40 14-68 33-91 61-6 7-15 22-21 34-7 13-11 26-21 60a3280 3280 0 01-51 161l-12 35-2 6 18 5 29 10c17 5 56 13 74 15l7 2a380 380 0 0018 2 632 632 0 00110-2l7-1 19-3 6-1 8-2 7-2a721 721 0 00185-71c16-11 25-25 28-43 1-13 2-15 5-24 8-25 23-41 52-59a366 366 0 01154-53l6-1 28-4 9-2 6-1 8-1 7-1 9-1 8-1 10-1 10-1 11-1a506 506 0 0028-2l17-1a1818 1818 0 01197 1l22 1 33 2 16 1 16 1 10 1a184 184 0 0117 2l8 1 8 1a114 114 0 0114 2l6 1 6 1 7 1 15 3 13 2 5 1 62 15 30 7 9 3c38 10 61 21 78 38a79 79 0 0126 52c1 14 1 18 3 25a58 58 0 0029 38l2 1c3 3 18 9 49 18l34 11a1114 1114 0 00101 27l11 2 6 1a408 408 0 0028 4l9 1a456 456 0 0099 3 507 507 0 0070-8l7-2 12-2 12-3 35-9c10-3 10-2 9-10l-2-11-1-6-1-5-2-8a1231 1231 0 00-21-87l-5-13a1055 1055 0 00-68-164c-12-15-27-28-43-36l-78-26a2802 2802 0 00-134-36l-37-9a1321 1321 0 00-124-25l-18-2-19-4-6-1h-6l-13-2-14-3-22-3-8-1-32-4-8-1-8-1-9-1-9-1-10-1-10-1-11-1-9-1-12-1-12-1-12-1a403 403 0 00-28-2l-15-1a1040 1040 0 01-59-3l-26-1-170-1z"/><path d="M714 1038c1 67 0 129-1 138l-2 9c-3 18-10 35-26 62l-22 34-15 25a3007 3007 0 00-71 117 4985 4985 0 00-67 106c-25 40-32 50-57 87a667 667 0 00-100 220l-2 5-1 7-3 15-4 15-1 9-2 13-2 10a385 385 0 00-6 55l-2 31-1 19a3927 3927 0 005 196l776 1h775v-2-148l-1-173-2-9a111 111 0 00-1-15 253 253 0 00-9-41 740 740 0 00-117-231l-70-112-13-22a5962 5962 0 00-47-74l-5-8-51-83-11-18-9-16-5-8a209 209 0 01-32-96l-1-93v-60h-117l-116 1-1 68v69h-166l-167-1v-138H713l1 36zm246 340c15 11 18 16 18 24 0 11-4 23-10 28l-13 7a287 287 0 00-22 12c-1 0-36 24-41 29l-7 7a355 355 0 00-112 188l-2 9-2 12-2 14a339 339 0 002 96 356 356 0 00136 224c19 14 20 15 23 21 6 11 5 25-4 34-7 8-11 9-20 9-10 1-14-1-24-10l-9-7c-36-31-76-72-94-97-33-47-57-108-66-163l-1-6-1-8-1-8c-2-7-2-72 1-84l1-8 1-12 1-9 2-10 2-10a473 473 0 0135-96 400 400 0 01203-190l6 4zm322-1a494 494 0 01125 90 380 380 0 01109 222l1 8c4 37 5 77 1 107l-1 8-1 6-1 6a400 400 0 01-68 160c-14 19-25 31-45 51-15 15-16 15-30 27l-11 9-22 14c-15 6-31 4-38-3-5-5-6-10-6-17 1-11 7-22 18-30a580 580 0 0052-46 355 355 0 0093-177l1-9 1-6a136 136 0 002-17v-58l-1-14a279 279 0 00-5-32 399 399 0 00-49-118l-20-27a383 383 0 00-104-89l-15-7c-13-8-21-16-21-26-1-8 4-20 10-26s17-8 25-6zm-289 170c11 6 12 8 14 12 5 9 4 29-2 36l-9 8a188 188 0 00-28 264c7 8 9 11 11 17 4 11 2 22-6 30-13 12-28 12-42-1a225 225 0 01-60-128l-1-7a297 297 0 011-70l1-6 2-9v-3l1-5 10-29c15-37 39-71 69-95 8-8 27-19 30-19l9 5zm261 3c9 3 20 13 35 27a247 247 0 0161 241 228 228 0 01-54 96c-11 10-22 12-34 7-7-4-14-11-16-18-2-5-1-13 2-20l15-22a296 296 0 0027-50l2-9 7-26 1-9c1-7 1-35-1-42a409 409 0 00-11-44c-12-27-27-48-47-68-24-23-27-26-28-37 0-5 0-7 2-11 4-9 11-15 19-18 5-1 14 0 20 2zM1595 1069v6a666 666 0 005 89l3 13c11 45 35 80 70 104a395 395 0 00173 54 672 672 0 00104-2l8-1 7-1 6-1 6-1c8-1 20-3 29-6l12-3c3 0 12-4 19-7 23-12 43-32 54-56 7-14 12-29 14-42v-94l-12 2-15 2-10 2a181 181 0 01-17 3 1203 1203 0 01-42 6l-9 1c-31 5-112 6-140 3l-11-2a138 138 0 01-18-2 585 585 0 01-70-12l-10-2-11-3c-36-8-105-34-138-51-6-3-7-3-7 1zM597 1083a671 671 0 01-192 64l-7 1-31 3a740 740 0 01-119 0l-10-1-7-1a672 672 0 01-121-28v3l1 14 1 17 1 16a1092 1092 0 007 76c3 15 9 31 17 43 10 15 27 29 44 37 14 7 35 12 53 15l8 1 5 1 10 1 9 1c18 2 85 2 106 0l9-1 16-2 7-1 6-2 6-1c12-1 47-10 59-14a207 207 0 00130-118 239 239 0 0011-122v-6l-2-4-17 8z"/></svg>