<?xml version="1.0" standalone="no"?>
<!DOCTYPE svg PUBLIC "-//W3C//DTD SVG 20010904//EN"
 "http://www.w3.org/TR/2001/REC-SVG-20010904/DTD/svg10.dtd">
<svg version="1.0" xmlns="http://www.w3.org/2000/svg"
 width="2212.000000pt" height="2212.000000pt" viewBox="0 0 2212.000000 2212.000000"
 preserveAspectRatio="xMidYMid meet">
<metadata>
Created by potrace 1.11, written by Peter Selinger 2001-2013
</metadata>
<g transform="translate(0.000000,2212.000000) scale(0.100000,-0.100000)"
fill="#000000" stroke="none">
<path d="M11077 22114 c-1 -1 -103 -5 -227 -9 -124 -3 -243 -8 -265 -10 -22
-2 -85 -6 -140 -9 -55 -4 -111 -8 -125 -10 -14 -3 -59 -7 -100 -11 -41 -3 -88
-8 -105 -10 -16 -2 -56 -7 -89 -10 -32 -4 -68 -8 -80 -10 -11 -2 -42 -6 -67
-9 -25 -4 -57 -9 -70 -11 -36 -6 -101 -16 -124 -19 -11 -2 -47 -8 -80 -14 -33
-6 -73 -14 -90 -17 -71 -12 -94 -17 -165 -31 -41 -9 -109 -24 -150 -34 -41
-10 -86 -21 -100 -24 -312 -68 -784 -225 -1163 -387 -159 -69 -448 -208 -553
-267 -38 -22 -100 -56 -139 -77 -38 -21 -77 -44 -86 -51 -8 -8 -19 -14 -22
-14 -23 0 -417 -259 -637 -418 -102 -74 -382 -296 -456 -361 -299 -265 -545
-517 -801 -821 -23 -27 -144 -172 -172 -205 -9 -11 -94 -119 -189 -240 -96
-121 -179 -227 -185 -235 -7 -8 -50 -64 -97 -125 -47 -60 -90 -117 -97 -125
-7 -8 -51 -64 -98 -125 -119 -154 -178 -228 -193 -243 -25 -27 -91 -178 -98
-227 -27 -174 32 -334 172 -465 138 -130 304 -203 444 -194 81 5 108 12 185
49 124 61 225 164 343 349 122 192 135 211 195 301 123 183 337 466 438 580
14 17 63 73 109 125 124 143 398 420 545 550 100 88 117 103 205 176 501 417
1143 798 1770 1051 451 182 988 332 1455 407 17 2 50 8 75 11 25 4 52 9 60 10
17 3 105 14 160 20 38 4 125 14 180 20 19 2 76 7 125 10 50 3 119 8 155 11 89
7 616 7 715 0 44 -3 112 -8 150 -11 83 -5 180 -15 215 -20 14 -2 52 -7 85 -10
33 -3 71 -7 85 -10 40 -6 162 -24 200 -30 19 -2 45 -7 56 -9 12 -2 37 -7 55
-10 128 -22 314 -62 469 -103 74 -19 142 -36 150 -38 33 -7 260 -78 345 -107
853 -291 1615 -736 2301 -1343 147 -130 429 -420 550 -565 183 -220 233 -286
761 -1019 207 -287 327 -393 516 -456 216 -72 420 -12 535 157 113 166 124
499 24 737 -67 158 -457 738 -704 1045 -306 381 -573 666 -943 1006 -44 41
-189 165 -301 258 -160 134 -523 393 -751 535 -230 144 -696 397 -731 397 -6
0 -12 5 -12 10 0 6 -5 10 -10 10 -6 0 -61 23 -123 51 -264 121 -611 251 -902
338 -94 28 -183 55 -200 61 -43 13 -303 78 -388 96 -39 8 -79 17 -87 19 -30 6
-226 44 -260 50 -19 3 -57 10 -85 15 -27 5 -66 11 -85 14 -19 2 -87 12 -150
20 -63 9 -128 18 -145 21 -37 5 -161 14 -275 20 -157 9 -708 23 -713 19z"/>
<path d="M11088 18995 c-2 -1 -84 -5 -183 -9 -178 -6 -222 -9 -320 -21 -27 -4
-63 -8 -80 -10 -29 -3 -102 -13 -155 -21 -89 -13 -109 -16 -145 -24 -22 -5
-53 -11 -70 -14 -246 -45 -613 -160 -900 -283 -123 -53 -443 -212 -475 -237
-8 -6 -31 -20 -50 -30 -370 -201 -981 -701 -1181 -966 -60 -79 -133 -225 -150
-300 -49 -214 33 -416 231 -570 99 -76 198 -109 320 -105 160 5 319 88 500
261 128 122 158 150 231 215 142 126 419 334 530 399 14 8 56 33 93 55 122 72
259 147 276 150 3 1 31 13 63 28 127 60 170 78 288 120 152 55 389 124 401
117 2 -1 16 3 31 9 26 10 59 18 112 26 11 2 63 10 115 18 180 29 329 41 530
40 124 0 313 -9 357 -17 10 -2 45 -7 78 -10 234 -27 628 -127 840 -216 401
-166 696 -338 1023 -594 70 -55 132 -105 139 -110 265 -241 354 -302 505 -351
133 -42 249 -38 364 15 89 40 150 88 215 170 94 118 127 205 127 332 0 223
-118 405 -453 704 -695 619 -1523 1009 -2460 1159 -11 2 -51 8 -90 14 -38 6
-86 13 -105 16 -19 3 -62 8 -95 11 -33 3 -71 7 -85 10 -14 3 -95 7 -180 10
-85 3 -163 7 -172 8 -9 2 -18 3 -20 1z"/>
<path d="M10418 16045 c-2 -2 -98 -6 -213 -9 -236 -7 -381 -13 -535 -21 -58
-3 -141 -8 -185 -10 -188 -10 -472 -30 -585 -40 -19 -2 -73 -6 -120 -10 -47
-3 -101 -8 -120 -10 -19 -2 -73 -7 -120 -11 -47 -3 -92 -7 -100 -9 -8 -2 -51
-6 -95 -10 -44 -3 -91 -8 -105 -10 -14 -2 -59 -7 -100 -10 -41 -4 -82 -8 -90
-10 -8 -1 -46 -6 -85 -9 -38 -4 -81 -9 -95 -11 -14 -2 -54 -7 -90 -10 -36 -4
-72 -9 -80 -10 -8 -2 -44 -6 -80 -10 -36 -4 -72 -8 -80 -10 -8 -1 -44 -6 -80
-10 -36 -4 -75 -9 -87 -10 -12 -2 -34 -6 -50 -9 -15 -3 -53 -8 -83 -11 -30 -3
-62 -8 -70 -10 -8 -2 -40 -7 -70 -10 -30 -3 -62 -8 -70 -10 -8 -2 -37 -6 -65
-10 -27 -3 -90 -12 -140 -20 -49 -8 -108 -17 -130 -20 -22 -3 -62 -10 -90 -15
-27 -6 -68 -12 -90 -15 -22 -3 -76 -12 -120 -20 -44 -8 -93 -17 -110 -19 -16
-3 -41 -8 -55 -10 -14 -3 -41 -8 -60 -10 -35 -6 -62 -11 -110 -21 -14 -3 -38
-7 -55 -9 -16 -3 -113 -21 -215 -41 -255 -50 -301 -59 -495 -101 -93 -20 -199
-42 -235 -49 -36 -8 -105 -23 -155 -35 -49 -12 -97 -23 -106 -25 -9 -2 -65
-15 -125 -30 -60 -15 -120 -29 -134 -31 -18 -4 -420 -106 -545 -138 -5 -2 -23
-6 -40 -11 -318 -82 -777 -215 -914 -264 -397 -143 -686 -336 -915 -611 -59
-72 -150 -219 -211 -341 -62 -127 -107 -255 -209 -599 -50 -171 -188 -615
-235 -755 -43 -131 -184 -566 -276 -850 -53 -165 -105 -326 -115 -357 l-18
-56 176 -57 c252 -80 253 -81 292 -93 167 -53 561 -137 735 -157 28 -3 61 -8
75 -10 14 -2 57 -7 95 -11 39 -3 78 -8 89 -10 115 -21 782 -21 892 0 11 2 57
7 104 11 47 3 92 8 100 10 8 2 38 6 65 10 99 12 119 15 195 30 14 3 39 7 55
10 17 3 55 11 85 17 30 6 62 12 70 13 123 17 705 187 865 254 11 5 38 16 60
24 367 142 774 334 929 438 157 104 250 250 271 424 17 134 21 156 51 245 84
245 233 414 522 591 169 104 396 214 577 282 73 26 281 91 330 102 11 2 36 8
55 13 57 15 343 81 370 86 14 2 61 11 105 21 44 9 91 18 105 20 14 2 39 7 55
10 55 10 249 44 285 49 19 3 58 8 85 12 28 3 58 8 69 10 10 2 44 6 75 9 31 4
63 8 71 10 8 2 47 7 85 11 39 3 77 8 86 9 8 2 53 6 100 10 46 4 92 9 102 10 9
2 56 7 105 10 48 3 105 8 127 10 22 2 90 7 150 10 61 4 137 8 170 10 164 10
575 19 870 18 378 0 691 -8 1105 -28 74 -3 171 -8 215 -10 77 -4 242 -13 335
-20 25 -1 97 -6 160 -10 63 -3 133 -8 155 -10 22 -2 69 -7 105 -10 36 -3 76
-8 90 -10 14 -2 50 -7 80 -10 30 -3 66 -7 80 -9 14 -3 48 -7 75 -11 28 -3 59
-8 70 -10 11 -2 43 -7 70 -10 28 -3 57 -8 65 -10 8 -2 35 -6 60 -9 25 -4 56
-8 70 -11 14 -2 79 -14 145 -26 66 -12 125 -22 130 -23 6 -2 28 -6 50 -10 149
-29 439 -95 623 -142 253 -64 232 -59 302 -79 30 -9 69 -20 85 -25 388 -105
610 -213 786 -382 88 -84 141 -157 188 -259 42 -90 58 -154 66 -264 10 -133
16 -174 35 -250 35 -137 107 -246 217 -329 34 -25 65 -46 69 -46 4 0 15 -6 23
-14 29 -26 183 -83 486 -180 165 -54 318 -103 340 -111 191 -66 765 -222 915
-249 14 -2 59 -11 100 -20 41 -8 91 -18 110 -21 19 -3 46 -7 60 -10 33 -6 96
-15 140 -21 19 -2 46 -6 60 -9 14 -2 50 -7 80 -10 30 -3 71 -8 90 -10 36 -5
97 -10 265 -21 140 -10 575 -10 725 -1 124 8 149 10 265 22 130 13 343 42 435
59 19 4 49 9 65 12 17 2 73 14 125 25 52 11 105 23 118 25 56 11 265 65 352
91 103 31 98 25 85 103 -5 36 -10 63 -20 110 -2 14 -7 39 -10 55 -3 17 -7 41
-10 55 -3 14 -9 48 -14 75 -18 96 -81 373 -111 491 -56 214 -68 257 -104 379
-20 66 -38 128 -41 137 -12 54 -176 531 -200 583 -7 17 -27 68 -45 115 -17 47
-35 94 -40 105 -5 11 -43 99 -83 195 -150 352 -241 535 -322 641 -115 153
-270 281 -430 355 -74 34 -454 161 -780 259 -236 72 -752 218 -845 240 -8 1
-60 15 -115 30 -55 15 -108 28 -118 30 -10 2 -27 7 -37 10 -10 3 -27 8 -37 10
-10 2 -94 22 -188 45 -142 34 -221 53 -365 85 -8 2 -78 18 -155 35 -129 29
-574 120 -655 134 -19 3 -46 8 -60 11 -47 10 -195 37 -220 41 -14 3 -36 7 -50
9 -45 9 -85 17 -105 20 -11 1 -92 15 -180 29 -88 15 -172 29 -187 32 -16 2
-41 6 -56 9 -16 3 -44 7 -63 9 -19 3 -79 12 -134 20 -55 8 -118 18 -140 21
-100 14 -174 24 -220 30 -27 4 -61 8 -75 10 -56 8 -235 31 -320 40 -30 4 -66
8 -80 10 -14 2 -52 6 -85 10 -33 3 -71 8 -85 10 -14 2 -56 6 -95 10 -38 3 -81
8 -95 10 -14 2 -61 6 -105 10 -44 3 -91 8 -105 10 -14 2 -56 6 -95 10 -38 3
-92 7 -120 10 -27 3 -81 7 -120 10 -38 3 -92 7 -120 10 -27 3 -92 7 -143 10
-52 3 -112 8 -135 10 -23 2 -89 6 -147 10 -58 3 -139 8 -180 11 -87 5 -218 11
-415 19 -77 4 -194 9 -260 12 -130 5 -1692 13 -1697 8z"/>
<path d="M7136 11743 c11 -671 7 -1288 -11 -1383 -2 -14 -9 -55 -15 -92 -27
-176 -102 -349 -265 -613 -57 -93 -153 -250 -212 -347 -59 -98 -126 -207 -148
-243 -134 -218 -233 -381 -250 -411 -11 -19 -72 -119 -135 -222 -63 -102 -117
-191 -119 -197 -2 -5 -7 -12 -11 -15 -4 -3 -17 -23 -28 -45 -12 -22 -89 -148
-171 -280 -83 -132 -176 -282 -208 -334 -131 -214 -273 -438 -460 -731 -258
-402 -319 -496 -571 -874 -306 -458 -383 -586 -533 -886 -181 -362 -330 -761
-439 -1173 -17 -64 -33 -125 -35 -135 -1 -9 -8 -35 -13 -57 -6 -22 -13 -51
-16 -65 -2 -14 -16 -79 -30 -145 -14 -66 -28 -136 -31 -155 -3 -19 -10 -57
-15 -85 -5 -27 -14 -86 -20 -130 -6 -44 -13 -91 -15 -105 -9 -51 -25 -177 -30
-235 -3 -33 -7 -69 -9 -80 -2 -11 -7 -56 -10 -100 -4 -44 -9 -102 -11 -130 -8
-90 -14 -178 -21 -310 -3 -71 -8 -157 -9 -190 -5 -87 -5 -876 -1 -1035 5 -166
17 -474 21 -555 2 -33 7 -130 10 -215 4 -85 9 -158 12 -162 2 -5 3494 -8 7759
-8 l7754 0 1 23 c0 12 1 677 1 1477 0 1299 -3 1632 -16 1735 -3 17 -7 57 -11
90 -3 33 -8 72 -11 87 -3 15 -7 39 -9 55 -6 43 -14 91 -31 173 -9 41 -18 86
-20 100 -3 14 -19 77 -36 140 -175 647 -446 1192 -1090 2188 -21 31 -42 66
-48 77 -6 11 -18 32 -28 47 -18 29 -488 777 -703 1120 -68 109 -129 206 -134
215 -6 10 -111 180 -235 378 -124 197 -227 364 -229 370 -2 5 -25 41 -49 80
-52 81 -486 785 -512 830 -9 17 -58 96 -107 176 -49 80 -93 152 -96 160 -4 8
-28 46 -52 84 -157 246 -278 590 -301 855 -3 36 -7 83 -10 105 -14 152 -19
407 -17 926 l2 597 -1167 -2 -1167 -1 -3 -687 -2 -688 -1665 0 c-1325 0 -1665
3 -1666 13 0 6 -1 319 -1 695 l-1 682 -1153 0 -1154 0 6 -357z m2466 -3403
c143 -114 178 -160 178 -239 0 -106 -43 -226 -100 -279 -11 -11 -69 -43 -128
-72 -59 -30 -131 -69 -160 -87 -29 -18 -55 -33 -58 -33 -18 0 -363 -243 -415
-292 -8 -7 -41 -35 -74 -63 -79 -66 -263 -250 -351 -350 -218 -250 -410 -554
-550 -867 -92 -207 -183 -483 -218 -659 -2 -13 -11 -55 -19 -94 -8 -38 -18
-92 -21 -120 -6 -47 -10 -71 -21 -140 -11 -73 -20 -244 -19 -415 0 -241 7
-332 39 -545 47 -301 151 -638 286 -925 248 -526 617 -978 1074 -1317 198
-147 207 -154 238 -211 61 -112 42 -255 -46 -346 -70 -72 -110 -89 -202 -90
-97 -1 -139 17 -235 100 -36 31 -76 66 -90 78 -364 307 -757 713 -937 970
-330 468 -576 1076 -659 1626 -3 19 -7 46 -10 60 -2 14 -6 52 -10 85 -3 33 -7
66 -9 72 -25 77 -25 725 0 848 2 11 6 47 10 80 3 33 9 85 15 115 5 30 11 71
14 90 3 19 12 67 20 105 8 39 17 83 20 97 18 102 113 413 173 568 61 159 75
191 175 390 244 489 559 890 1003 1275 139 121 391 296 588 409 153 88 407
212 441 215 4 1 31 -17 58 -39z m3219 10 c23 -7 135 -73 248 -147 660 -434
762 -511 1006 -757 344 -346 617 -752 805 -1196 123 -291 233 -702 275 -1020
3 -25 7 -61 10 -80 49 -371 53 -768 10 -1070 -2 -19 -7 -53 -10 -75 -3 -23 -7
-52 -10 -65 -3 -13 -7 -40 -10 -60 -38 -246 -144 -600 -262 -872 -32 -74 -160
-327 -191 -378 -12 -19 -25 -42 -29 -50 -14 -30 -119 -188 -196 -295 -138
-191 -245 -314 -448 -515 -154 -153 -156 -154 -299 -270 -58 -47 -107 -87
-110 -90 -26 -29 -173 -123 -217 -140 -148 -55 -314 -42 -382 31 -48 51 -64
97 -59 174 7 109 69 214 174 295 37 29 119 95 124 100 3 3 39 35 82 72 131
113 148 129 313 293 212 211 313 337 466 582 202 323 387 787 444 1113 3 19
10 53 15 75 5 22 11 60 15 85 3 25 8 52 10 60 2 8 6 44 10 80 3 36 8 79 11 95
8 52 11 507 4 580 -5 39 -11 102 -15 140 -4 39 -11 91 -15 117 -5 26 -12 69
-16 95 -3 26 -8 51 -10 54 -2 4 -6 24 -9 45 -15 96 -95 369 -155 529 -74 196
-199 446 -292 588 -21 32 -38 60 -38 63 0 10 -110 161 -202 277 -136 172 -424
463 -530 535 -13 9 -25 19 -28 22 -12 15 -173 132 -250 182 -129 83 -159 102
-235 143 -38 21 -102 55 -141 76 -135 74 -212 163 -219 256 -6 78 45 204 107
264 59 56 165 81 249 59z m-2887 -1700 c102 -63 120 -77 140 -117 47 -94 35
-297 -22 -360 -15 -17 -56 -54 -92 -82 -356 -284 -606 -712 -674 -1151 -33
-211 -28 -509 10 -670 3 -14 8 -38 11 -55 2 -16 24 -89 48 -162 77 -232 171
-406 325 -598 70 -88 85 -112 111 -176 43 -110 20 -217 -62 -299 -124 -122
-282 -117 -420 13 -162 154 -351 450 -459 722 -70 175 -129 400 -145 555 -4
30 -8 62 -10 70 -17 64 -24 396 -11 532 7 76 10 97 22 168 3 19 8 46 10 60 4
21 8 40 19 90 1 3 4 19 8 35 4 17 9 39 11 50 9 42 60 194 97 288 145 363 389
703 685 952 88 73 270 185 303 185 7 0 50 -22 95 -50z m2610 -25 c83 -38 199
-130 345 -276 234 -233 435 -547 554 -869 41 -109 90 -283 103 -360 2 -14 6
-34 9 -46 3 -12 7 -39 10 -60 3 -21 7 -48 10 -59 18 -86 25 -382 12 -531 -9
-105 -41 -295 -67 -392 -12 -42 -22 -84 -24 -93 -20 -80 -108 -303 -167 -421
-97 -194 -270 -441 -374 -536 -110 -101 -220 -125 -332 -71 -76 37 -145 110
-163 174 -16 57 -8 139 20 201 17 40 129 206 150 224 10 8 104 160 140 224 29
53 130 273 128 279 0 1 12 40 26 87 27 83 53 194 62 255 2 17 8 59 12 95 10
72 8 349 -3 420 -6 38 -24 132 -40 203 -10 45 -59 196 -77 237 -118 270 -264
482 -467 675 -244 233 -268 265 -278 374 -5 48 -1 68 19 112 42 92 108 153
189 178 50 15 140 5 203 -24z"/>
<path d="M15949 11433 c0 -16 -2 -41 -4 -58 -6 -55 -6 -409 0 -490 12 -163 20
-239 35 -320 5 -27 12 -66 15 -85 3 -19 17 -78 30 -131 116 -452 352 -799 709
-1040 266 -179 775 -366 1261 -464 176 -35 189 -37 340 -55 50 -6 105 -13 124
-16 133 -18 634 -25 811 -11 125 10 191 16 230 22 19 2 55 7 80 10 25 3 56 8
70 10 14 3 40 7 58 10 17 3 47 7 65 10 76 12 199 38 292 62 55 14 107 26 115
28 27 6 119 44 188 79 235 118 428 316 547 560 64 131 114 287 133 415 8 53
10 937 2 944 -3 3 -59 -6 -125 -19 -66 -14 -132 -27 -148 -29 -15 -3 -58 -12
-95 -19 -37 -8 -85 -17 -107 -20 -22 -4 -51 -9 -65 -11 -43 -8 -233 -36 -270
-41 -19 -2 -51 -7 -70 -10 -19 -3 -57 -7 -85 -9 -27 -3 -66 -7 -85 -10 -307
-41 -1124 -53 -1400 -21 -19 3 -71 7 -115 11 -44 3 -89 8 -100 10 -11 2 -47 7
-80 10 -93 10 -153 19 -350 51 -28 4 -311 61 -345 69 -8 2 -55 13 -105 25 -49
12 -97 23 -105 25 -361 85 -1054 341 -1382 511 -60 31 -68 30 -69 -3z"/>
<path d="M5965 11290 c-448 -227 -904 -400 -1368 -519 -146 -38 -453 -103
-547 -116 -25 -3 -56 -8 -70 -10 -41 -7 -261 -34 -315 -39 -272 -27 -925 -28
-1085 -2 -14 2 -59 7 -100 10 -41 4 -86 8 -100 10 -14 3 -47 7 -75 11 -249 30
-591 101 -880 180 -88 24 -196 56 -240 70 -44 14 -83 25 -86 25 -4 0 -5 -15
-3 -32 1 -18 5 -80 9 -138 3 -58 8 -134 10 -170 3 -36 7 -108 10 -160 12 -222
22 -366 31 -455 18 -189 22 -211 40 -305 31 -150 94 -306 176 -430 96 -146
269 -293 436 -371 137 -64 354 -123 532 -144 25 -3 59 -7 75 -10 17 -3 43 -7
59 -10 16 -2 59 -7 95 -10 36 -4 77 -8 91 -10 180 -27 847 -26 1055 0 17 2 57
7 90 10 64 7 112 13 160 20 17 3 48 7 70 10 22 4 51 8 65 11 14 2 41 7 60 10
121 19 468 103 593 144 506 167 919 488 1159 901 50 87 100 186 118 234 4 11
12 31 19 45 35 78 98 304 116 420 4 25 9 54 11 64 28 151 21 573 -12 738 -2
13 -6 38 -8 57 -3 19 -8 37 -13 40 -4 4 -84 -32 -178 -79z"/>
</g>
</svg>
