<svg xmlns="http://www.w3.org/2000/svg" width="1024" height="613" version="1.0" viewBox="-7.3 -7.3 432.8 259">
  <path fill="#fa7d19" d="M281 158.1h-25.8v-71H281c20.2 0 27.4 8.6 27.4 35.5s-7.2 35.5-27.4 35.5m96.4-71h40.8V67.8H369c-26.4 0-37.3 14.7-37.3 38v2.2c-4.4-27.3-20.6-40.2-50.3-40.2h-49.8a122.2 122.2 0 10-.4 109.7H282c12.1 0 23-.8 34.2-9.7a44 44 0 0015.4-27.1v36.6h23.3v-43h55V115h-55l.3-7.7c0-12.6 3.8-20.2 22.1-20.2"/>
  <path fill="#fff" d="M176.3 113.2h15.2c12 0 19.2-2.4 19.2-12.7 0-10.5-7.2-13.4-19.5-13.4h-51.5V67.8h59.9c30.4 0 34.7 21.2 34.7 33 0 12.7-5.2 32.7-34.8 32.7H185c-18.4 0-22.4 6.6-22.4 19.2v5.9h68.7v18.7H139v-27.2c0-23.1 11-37 37.3-37"/>
</svg>
