<svg xmlns="http://www.w3.org/2000/svg" xmlns:xlink="http://www.w3.org/1999/xlink" enable-background="new 0 0 300 91" viewBox="0 0 300 91"><path d="M88.3 56.2h8c.3 3.3 2.3 5 5.9 5 1.5 0 2.8-.4 4-1 1-.5 1.5-1.4 1.5-2.7 0-1.1-.4-2-1.3-2.5-1-.6-2-1-3.5-1.3l-5.6-1.2c-5.5-1.2-8.2-4.3-8.2-9.3a9 9 0 013.3-7 12 12 0 014-2.2c1.6-.5 3.3-.7 5.3-.7 3.7 0 6.7.9 9.1 2.6 2.4 1.8 3.6 4.5 3.8 8.1h-8c0-1.5-.5-2.6-1.4-3.4-1-.8-2-1.1-3.5-1.1-1.3 0-2.5.3-3.3.9A3 3 0 0097 43c0 1.1.3 2 1 2.5.6.5 1.4.9 2.4 1.1L107 48c1.2.2 2.3.6 3.4 1 1 .5 2 1.1 2.8 1.9a8.2 8.2 0 012.5 6.3 8.8 8.8 0 01-3.5 7.1c-1.2 1-2.6 1.7-4.3 2.2-1.6.5-3.6.8-5.7.8-4.3 0-7.7-1-10-2.9-2.4-1.9-3.7-4.6-3.9-8.2zM122 31v-7.1h8.3V31H122zm.2 35.5V34h8v32.5h-8zM138.6 77.4V34h8v4.4c1-1.6 2.2-2.8 3.8-3.8a11 11 0 015.6-1.3c2.2 0 4 .4 5.7 1.3 1.6.9 3 2.1 4 3.6a16 16 0 012.3 5.4 28 28 0 010 13.3c-.5 2.1-1.3 3.9-2.3 5.4-1 1.6-2.4 2.8-4 3.7-1.6.9-3.5 1.3-5.7 1.3-2.1 0-4-.4-5.6-1.4-1.6-.9-2.9-2.1-3.9-3.8v15.3h-8zm8-24.7c0 2.6.5 4.6 1.7 6.1 1.1 1.6 3 2.3 5.5 2.3 2.1 0 3.7-.5 5-1.7a6 6 0 001.7-4.5v-9.2a6 6 0 00-1.8-4.6 6.9 6.9 0 00-4.9-1.6c-2.5 0-4.4.7-5.5 2.2a9.8 9.8 0 00-1.8 6.2v4.8zM174.4 50.3c0-2.4.2-4.6.7-6.7.6-2 1.3-3.8 2.4-5.4a11.5 11.5 0 019.7-5c2.1 0 4 .5 5.6 1.4 1.6 1 2.9 2.2 3.9 3.8V34h8v32c0 2.2-.5 4.1-1.3 5.8-.8 1.6-1.9 3-3.2 4-1.4 1-3 1.8-4.7 2.4a25.7 25.7 0 01-10.9.3c-1.6-.4-3.1-1-4.4-1.8a9.7 9.7 0 01-3-3.2c-.9-1.3-1.4-2.9-1.7-4.7h8c.2 1.2.8 2.2 1.7 3 .9.6 2.3 1 4.1 1 1 0 1.9-.1 2.8-.3a5.5 5.5 0 004-3.3 9 9 0 00.6-3.6v-3.5c-1 1.7-2.3 3-3.9 3.8a12.1 12.1 0 01-11.2 0c-1.6-.8-3-2-4-3.6-1-1.5-1.9-3.3-2.4-5.4-.6-2-.8-4.2-.8-6.6zm8.2 4.6a6 6 0 001.8 4.5 6.7 6.7 0 005 1.7c2.5 0 4.4-.8 5.5-2.3a9.8 9.8 0 001.8-6v-5c0-2.5-.6-4.5-1.8-6-1.1-1.6-3-2.3-5.6-2.3-2 0-3.7.5-4.9 1.7a6 6 0 00-1.8 4.5v9.2zM211.2 57.3c0-2.6 1-5 2.8-6.8 1.8-2 4.4-3 7.9-3.4l9-.7v-2.1c0-1.7-.5-3-1.4-3.7-.9-.8-2.1-1.1-3.7-1.1s-3 .4-4 1.1c-1 .8-1.5 2-1.5 3.4h-8a10.1 10.1 0 014-8 13 13 0 014.4-2 20 20 0 015.4-.7c3.9 0 7 1 9.2 2.8 2.3 1.9 3.4 4.7 3.4 8.3v16h5.5v6.1h-12.5l-.1-5h-.3c-1 1.8-2.2 3.2-3.7 4.2s-3.6 1.6-6 1.6a10.2 10.2 0 01-7.3-2.8c-1-1-1.8-2-2.3-3.2-.5-1.2-.8-2.5-.8-4zm8.3.9c0 1 .5 1.7 1.4 2.2.9.5 2 .7 3.4.7 2 0 3.6-.7 4.8-2.1a8 8 0 001.8-5.3v-1.2l-9.6.8c-1.2.1-1.8.8-1.8 2.1v2.8zM244.4 40.2V34h6.5V24h8V34h8v6.2h-8v20.1h8v6.2h-16V40.2h-6.5zM270.8 50.2c0-2.5.4-4.8 1-7a16 16 0 013-5.3 13 13 0 014.7-3.4c1.8-.8 3.8-1.2 6-1.2s4.2.4 6 1.2a13.7 13.7 0 017.5 8.1c.7 2 1 4 1 6.2v4h-21V55c0 2 .7 3.4 2 4.5 1.3 1 2.8 1.6 4.5 1.6 1.8 0 3.2-.4 4.3-1.4 1.1-.9 1.8-2.2 2-3.8h8c-.6 3.6-2 6.4-4.6 8.4-2.5 2-5.8 3-9.7 3-2.3 0-4.4-.4-6.2-1.2a13 13 0 01-4.6-3.5 15.6 15.6 0 01-2.9-5.4c-.7-2.1-1-4.4-1-7zm8.3-3.6h12.7v-1.1c0-1.8-.6-3.2-1.8-4.4a6.5 6.5 0 00-4.5-1.6c-1.9 0-3.4.5-4.6 1.6a5.7 5.7 0 00-1.8 4.4v1.1z"/><defs><path id="a" d="M30.7 90.4A30.2 30.2 0 011 66.5L46 34a30.2 30.2 0 01-15.2 56.4z"/></defs><clipPath id="c"><use overflow="visible" xlink:href="#a"/></clipPath><defs><filter id="b" width="22.5" height="20.3" x="-1" y="56.2" filterUnits="userSpaceOnUse"><feColorMatrix values="1 0 0 0 0 0 1 0 0 0 0 0 1 0 0 0 0 0 1 0"/></filter></defs><mask id="e" width="22.5" height="20.3" x="-1" y="56.2" maskUnits="userSpaceOnUse"><g filter="url(#b)"><linearGradient id="d" x1="9156.2" x2="9252.3" y1="9127.7" y2="9127.7" gradientTransform="matrix(.16778 -.09687 .06545 .11336 -2131.4 -76.8)" gradientUnits="userSpaceOnUse"><stop offset=".9" stop-color="#fff"/><stop offset="1" stop-color="#fdfdfd"/><stop offset="1" stop-color="#f5f5f6"/><stop offset="1" stop-color="#e7e7e8"/><stop offset="1" stop-color="#d3d4d6"/><stop offset="1" stop-color="#bbbcbe"/><stop offset="1" stop-color="#9ea1a3"/><stop offset="1" stop-color="#7e8183"/><stop offset="1" stop-color="#5b6061"/><stop offset="1" stop-color="#363b3b"/><stop offset="1" stop-color="#0b0f0f"/><stop offset="1"/></linearGradient><path fill="url(#d)" d="M15.1 56.2l-8 4.7-8.1 4.6 6.3 11 16.2-9.3z" clip-path="url(#c)"/></g></mask><linearGradient id="f" x1="9204.3" x2="9204.3" y1="9176.1" y2="9079.2" gradientTransform="matrix(.16778 -.09687 .06545 .11336 -2131.4 -76.8)" gradientUnits="userSpaceOnUse"><stop offset=".6" stop-opacity="0"/><stop offset="1" stop-opacity=".6"/></linearGradient><path fill="url(#f)" d="M15.1 56.2l-8 4.7-8.1 4.6 6.3 11 16.2-9.3z" clip-path="url(#c)" mask="url(#e)"/><defs><filter id="g" width="33.6" height="33.9" x="-4" y="54.6" filterUnits="userSpaceOnUse"><feColorMatrix values="1 0 0 0 0 0 1 0 0 0 0 0 1 0 0 0 0 0 1 0"/></filter></defs><mask id="i" width="33.6" height="33.9" x="-4" y="54.6" maskUnits="userSpaceOnUse"><g filter="url(#g)"><linearGradient id="h" x1="6032.8" x2="6128.9" y1="6073.1" y2="6073.1" gradientTransform="matrix(.18671 -.1512 .16156 .1995 -2103.7 -220.6)" gradientUnits="userSpaceOnUse"><stop offset=".9" stop-color="#fff"/><stop offset=".9" stop-color="#fdfdfd"/><stop offset="1" stop-color="#f5f5f6"/><stop offset="1" stop-color="#e7e7e8"/><stop offset="1" stop-color="#d3d4d6"/><stop offset="1" stop-color="#bbbcbe"/><stop offset="1" stop-color="#9ea1a3"/><stop offset="1" stop-color="#7e8183"/><stop offset="1" stop-color="#5b6061"/><stop offset="1" stop-color="#363b3b"/><stop offset="1" stop-color="#0b0f0f"/><stop offset="1"/></linearGradient><path fill="url(#h)" d="M13.9 54.6L5 61.9l-9 7.3 15.6 19.3 18-14.5z" clip-path="url(#c)"/></g></mask><linearGradient id="j" x1="6080.8" x2="6080.8" y1="6121.5" y2="6024.6" gradientTransform="matrix(.18671 -.1512 .16156 .1995 -2103.7 -220.6)" gradientUnits="userSpaceOnUse"><stop offset=".7" stop-opacity="0"/><stop offset="1" stop-opacity=".7"/></linearGradient><path fill="url(#j)" d="M13.9 54.6L5 61.9l-9 7.3 15.6 19.3 18-14.5z" clip-path="url(#c)" mask="url(#i)"/><defs><filter id="k" width="75.9" height="66.9" x="-3.9" y="37" filterUnits="userSpaceOnUse"><feColorMatrix values="1 0 0 0 0 0 1 0 0 0 0 0 1 0 0 0 0 0 1 0"/></filter></defs><mask id="m" width="75.9" height="66.9" x="-3.9" y="37" maskUnits="userSpaceOnUse"><g filter="url(#k)"><linearGradient id="l" x1="937.1" x2="1033.3" y1="2563.1" y2="2563.1" gradientTransform="matrix(.58753 -.29936 .20064 .39377 -1059 -643.9)" gradientUnits="userSpaceOnUse"><stop offset="0" stop-color="#fff"/><stop offset=".2" stop-color="#b9bbbd"/><stop offset=".3" stop-color="#7e8183"/><stop offset=".5" stop-color="#515657"/><stop offset=".6" stop-color="#313637"/><stop offset=".8" stop-color="#191f1f"/><stop offset=".9" stop-color="#060909"/><stop offset="1"/></linearGradient><path fill="url(#l)" d="M52.6 37L24.4 51.4-3.9 65.8 15.6 104l56.5-28.8z" clip-path="url(#c)"/></g></mask><linearGradient id="n" x1="985.2" x2="985.2" y1="2611.6" y2="2514.6" gradientTransform="matrix(.58753 -.29936 .20064 .39377 -1059 -643.9)" gradientUnits="userSpaceOnUse"><stop offset=".5" stop-opacity=".4"/><stop offset=".9" stop-opacity=".1"/><stop offset="1" stop-opacity="0"/></linearGradient><path fill="url(#n)" d="M52.6 37L24.4 51.4-3.9 65.8 15.6 104l56.5-28.8z" clip-path="url(#c)" mask="url(#m)"/><defs><filter id="o" width="75.6" height="65.6" x="-4.9" y="37.1" filterUnits="userSpaceOnUse"><feColorMatrix values="1 0 0 0 0 0 1 0 0 0 0 0 1 0 0 0 0 0 1 0"/></filter></defs><mask id="q" width="75.6" height="65.6" x="-4.9" y="37.1" maskUnits="userSpaceOnUse"><g filter="url(#o)"><linearGradient id="p" x1="989.9" x2="1086.1" y1="2378.3" y2="2378.3" gradientTransform="matrix(.59762 -.27868 .18677 .40053 -1031.7 -593.4)" gradientUnits="userSpaceOnUse"><stop offset="0" stop-color="#fff"/><stop offset=".1" stop-color="#d4d5d6"/><stop offset=".2" stop-color="#9da0a2"/><stop offset=".3" stop-color="#717577"/><stop offset=".4" stop-color="#4f5455"/><stop offset=".5" stop-color="#353a3b"/><stop offset=".6" stop-color="#202626"/><stop offset=".7" stop-color="#101515"/><stop offset=".8" stop-color="#030505"/><stop offset="1"/></linearGradient><path fill="url(#p)" d="M52.5 37.1L23.8 50.5-4.9 63.9l18.1 38.8 57.4-26.8z" clip-path="url(#c)"/></g></mask><linearGradient id="r" x1="1038" x2="1038" y1="2426.8" y2="2329.8" gradientTransform="matrix(.59762 -.27868 .18677 .40053 -1031.7 -593.4)" gradientUnits="userSpaceOnUse"><stop offset=".8" stop-opacity=".3"/><stop offset="1" stop-opacity="0"/><stop offset="1" stop-opacity="0"/></linearGradient><path fill="url(#r)" d="M52.5 37.1L23.8 50.5-4.9 63.9l18.1 38.8 57.4-26.8z" clip-path="url(#c)" mask="url(#q)"/><defs><filter id="s" width="76.2" height="49.2" x="-5.2" y="46.9" filterUnits="userSpaceOnUse"><feColorMatrix values="1 0 0 0 0 0 1 0 0 0 0 0 1 0 0 0 0 0 1 0"/></filter></defs><mask id="u" width="76.2" height="49.2" x="-5.2" y="46.9" maskUnits="userSpaceOnUse"><g filter="url(#s)"><linearGradient id="t" x1="-2731.3" x2="-2635.1" y1="3617.8" y2="3617.8" gradientTransform="matrix(-.0455 -.43292 .74137 -.07792 -2771.3 -808.2)" gradientUnits="userSpaceOnUse"><stop offset=".3" stop-color="#fff"/><stop offset=".6" stop-color="#fdfdfd"/><stop offset=".7" stop-color="#f5f5f6"/><stop offset=".7" stop-color="#e7e7e8"/><stop offset=".8" stop-color="#d3d4d6"/><stop offset=".8" stop-color="#bbbcbe"/><stop offset=".9" stop-color="#9ea1a3"/><stop offset=".9" stop-color="#7e8183"/><stop offset=".9" stop-color="#5b6061"/><stop offset="1" stop-color="#363b3b"/><stop offset="1" stop-color="#0b0f0f"/><stop offset="1"/></linearGradient><path fill="url(#t)" d="M-5.2 54.4L-3 75.2l2.1 20.9L71 88.5l-4.4-41.6z" clip-path="url(#c)"/></g></mask><linearGradient id="v" x1="-2683.2" x2="-2683.2" y1="3666.2" y2="3569.3" gradientTransform="matrix(-.0455 -.43292 .74137 -.07792 -2771.3 -808.2)" gradientUnits="userSpaceOnUse"><stop offset="0" stop-opacity="0"/><stop offset="1" stop-opacity=".2"/></linearGradient><path fill="url(#v)" d="M-5.2 54.4L-3 75.2l2.1 20.9L71 88.5l-4.4-41.6-52 5.4z" clip-path="url(#c)" mask="url(#u)"/><defs><filter id="w" width="71.2" height="95.9" x="-29.7" y="32.1" filterUnits="userSpaceOnUse"><feColorMatrix values="1 0 0 0 0 0 1 0 0 0 0 0 1 0 0 0 0 0 1 0"/></filter></defs><mask id="y" width="71.2" height="95.9" x="-29.7" y="32.1" maskUnits="userSpaceOnUse"><g filter="url(#w)"><linearGradient id="x" x1="4536.7" x2="4653.4" y1="1483.7" y2="1483.7" gradientTransform="matrix(.30412 -.1354 .3032 .681 -1841.4 -308.2)" gradientUnits="userSpaceOnUse"><stop offset=".3" stop-color="#fff"/><stop offset=".6" stop-color="#fdfdfd"/><stop offset=".7" stop-color="#f5f5f6"/><stop offset=".7" stop-color="#e7e7e8"/><stop offset=".8" stop-color="#d3d4d6"/><stop offset=".8" stop-color="#bbbcbe"/><stop offset=".9" stop-color="#9ea1a3"/><stop offset=".9" stop-color="#7e8183"/><stop offset=".9" stop-color="#5b6061"/><stop offset="1" stop-color="#363b3b"/><stop offset="1" stop-color="#0b0f0f"/><stop offset="1"/></linearGradient><path fill="url(#x)" d="M5.8 32.1L-12 40l-17.7 7.9L5.9 128l35.5-15.8z" clip-path="url(#c)"/></g></mask><linearGradient id="z" x1="4595" x2="4595" y1="1542.5" y2="1424.9" gradientTransform="matrix(.30412 -.1354 .3032 .681 -1841.4 -308.2)" gradientUnits="userSpaceOnUse"><stop offset="0" stop-opacity="0"/><stop offset="1" stop-opacity=".8"/></linearGradient><path fill="url(#z)" d="M5.8 32.1L-12 40l-17.7 7.9L5.9 128l35.5-15.8-25.8-58z" clip-path="url(#c)" mask="url(#y)"/><defs><filter id="A" width="77.5" height="95.4" x="-30.1" y="33.2" filterUnits="userSpaceOnUse"><feColorMatrix values="1 0 0 0 0 0 1 0 0 0 0 0 1 0 0 0 0 0 1 0"/></filter></defs><mask id="C" width="77.5" height="95.4" x="-30.1" y="33.2" maskUnits="userSpaceOnUse"><g filter="url(#A)"><linearGradient id="B" x1="4207.5" x2="4324.2" y1="1806.3" y2="1806.3" gradientTransform="matrix(.2883 -.16645 .37272 .64558 -1894.5 -375.2)" gradientUnits="userSpaceOnUse"><stop offset=".3" stop-color="#fff"/><stop offset=".6" stop-color="#fdfdfd"/><stop offset=".7" stop-color="#f5f5f6"/><stop offset=".7" stop-color="#e7e7e8"/><stop offset=".8" stop-color="#d3d4d6"/><stop offset=".8" stop-color="#bbbcbe"/><stop offset=".9" stop-color="#9ea1a3"/><stop offset=".9" stop-color="#7e8183"/><stop offset=".9" stop-color="#5b6061"/><stop offset="1" stop-color="#363b3b"/><stop offset="1" stop-color="#0b0f0f"/><stop offset="1"/></linearGradient><path fill="url(#B)" d="M3.5 33.2l-16.8 9.7-16.8 9.7 43.8 76 33.7-19.4z" clip-path="url(#c)"/></g></mask><linearGradient id="D" x1="4265.8" x2="4265.8" y1="1865.2" y2="1747.5" gradientTransform="matrix(.2883 -.16645 .37272 .64558 -1894.5 -375.2)" gradientUnits="userSpaceOnUse"><stop offset="0" stop-opacity="0"/><stop offset="1" stop-opacity=".8"/></linearGradient><path fill="url(#D)" d="M3.5 33.2l-16.8 9.7-16.8 9.7 43.8 76 33.7-19.4-31.8-55z" clip-path="url(#c)" mask="url(#C)"/><defs><filter id="E" width="83" height="93.8" x="-30" y="34.6" filterUnits="userSpaceOnUse"><feColorMatrix values="1 0 0 0 0 0 1 0 0 0 0 0 1 0 0 0 0 0 1 0"/></filter></defs><mask id="G" width="83" height="93.8" x="-30" y="34.6" maskUnits="userSpaceOnUse"><g filter="url(#E)"><linearGradient id="F" x1="3804.5" x2="3921.3" y1="2111.9" y2="2111.9" gradientTransform="matrix(.26933 -.19568 .43816 .60308 -1954.3 -436.3)" gradientUnits="userSpaceOnUse"><stop offset=".3" stop-color="#fff"/><stop offset=".6" stop-color="#fdfdfd"/><stop offset=".7" stop-color="#f5f5f6"/><stop offset=".7" stop-color="#e7e7e8"/><stop offset=".8" stop-color="#d3d4d6"/><stop offset=".8" stop-color="#bbbcbe"/><stop offset=".9" stop-color="#9ea1a3"/><stop offset=".9" stop-color="#7e8183"/><stop offset=".9" stop-color="#5b6061"/><stop offset="1" stop-color="#363b3b"/><stop offset="1" stop-color="#0b0f0f"/><stop offset="1"/></linearGradient><path fill="url(#F)" d="M1.4 34.6L-14.3 46-30 57.4l51.5 71 31.4-22.9z" clip-path="url(#c)"/></g></mask><linearGradient id="H" x1="3862.9" x2="3862.9" y1="2170.7" y2="2053" gradientTransform="matrix(.26933 -.19568 .43816 .60308 -1954.3 -436.3)" gradientUnits="userSpaceOnUse"><stop offset="0" stop-opacity="0"/><stop offset="1" stop-opacity=".7"/></linearGradient><path fill="url(#H)" d="M1.4 34.6L-14.3 46-30 57.4l51.5 71 31.4-22.9-37.3-51.3z" clip-path="url(#c)" mask="url(#G)"/><defs><filter id="I" width="87.6" height="91.2" x="-29.5" y="36.2" filterUnits="userSpaceOnUse"><feColorMatrix values="1 0 0 0 0 0 1 0 0 0 0 0 1 0 0 0 0 0 1 0"/></filter></defs><mask id="K" width="87.6" height="91.2" x="-29.5" y="36.2" maskUnits="userSpaceOnUse"><g filter="url(#I)"><linearGradient id="J" x1="3332.3" x2="3449" y1="2396.9" y2="2396.9" gradientTransform="matrix(.2474 -.22276 .4988 .55398 -2020 -490.8)" gradientUnits="userSpaceOnUse"><stop offset=".3" stop-color="#fff"/><stop offset=".6" stop-color="#fdfdfd"/><stop offset=".7" stop-color="#f5f5f6"/><stop offset=".7" stop-color="#e7e7e8"/><stop offset=".8" stop-color="#d3d4d6"/><stop offset=".8" stop-color="#bbbcbe"/><stop offset=".9" stop-color="#9ea1a3"/><stop offset=".9" stop-color="#7e8183"/><stop offset=".9" stop-color="#5b6061"/><stop offset="1" stop-color="#363b3b"/><stop offset="1" stop-color="#0b0f0f"/><stop offset="1"/></linearGradient><path fill="url(#J)" d="M-.6 36.2l-14.4 13-14.5 13 58.7 65.2 28.9-26z" clip-path="url(#c)"/></g></mask><linearGradient id="L" x1="3390.7" x2="3390.7" y1="2455.7" y2="2338.1" gradientTransform="matrix(.2474 -.22276 .4988 .55398 -2020 -490.8)" gradientUnits="userSpaceOnUse"><stop offset="0" stop-opacity="0"/><stop offset="1" stop-opacity=".7"/></linearGradient><path fill="url(#L)" d="M-.6 36.2l-14.4 13-14.5 13 58.7 65.2 28.9-26-42.5-47.2z" clip-path="url(#c)" mask="url(#K)"/><defs><filter id="M" width="91.2" height="87.6" x="-28.4" y="38" filterUnits="userSpaceOnUse"><feColorMatrix values="1 0 0 0 0 0 1 0 0 0 0 0 1 0 0 0 0 0 1 0"/></filter></defs><mask id="O" width="91.2" height="87.6" x="-28.4" y="38" maskUnits="userSpaceOnUse"><g filter="url(#M)"><linearGradient id="N" x1="2796" x2="2912.7" y1="2658.3" y2="2658.3" gradientTransform="matrix(.22276 -.2474 .55398 .4988 -2091.2 -538)" gradientUnits="userSpaceOnUse"><stop offset=".3" stop-color="#fff"/><stop offset=".6" stop-color="#fdfdfd"/><stop offset=".7" stop-color="#f5f5f6"/><stop offset=".7" stop-color="#e7e7e8"/><stop offset=".8" stop-color="#d3d4d6"/><stop offset=".8" stop-color="#bbbcbe"/><stop offset=".9" stop-color="#9ea1a3"/><stop offset=".9" stop-color="#7e8183"/><stop offset=".9" stop-color="#5b6061"/><stop offset="1" stop-color="#363b3b"/><stop offset="1" stop-color="#0b0f0f"/><stop offset="1"/></linearGradient><path fill="url(#N)" d="M-2.4 38l-13 14.4-13 14.5 65.2 58.6 26-28.8z" clip-path="url(#c)"/></g></mask><linearGradient id="P" x1="2854.3" x2="2854.3" y1="2717.1" y2="2599.5" gradientTransform="matrix(.22276 -.2474 .55398 .4988 -2091.2 -538)" gradientUnits="userSpaceOnUse"><stop offset="0" stop-opacity="0"/><stop offset="1" stop-opacity=".8"/></linearGradient><path fill="url(#P)" d="M-2.4 38l-13 14.4-13 14.5 65.2 58.6 26-28.8-47.2-42.5z" clip-path="url(#c)" mask="url(#O)"/><defs><filter id="Q" width="93.8" height="83" x="-26.8" y="39.9" filterUnits="userSpaceOnUse"><feColorMatrix values="1 0 0 0 0 0 1 0 0 0 0 0 1 0 0 0 0 0 1 0"/></filter></defs><mask id="S" width="93.8" height="83" x="-26.8" y="39.9" maskUnits="userSpaceOnUse"><g filter="url(#Q)"><linearGradient id="R" x1="2201.4" x2="2318.1" y1="2893.3" y2="2893.3" gradientTransform="matrix(.19568 -.26933 .60308 .43816 -2167 -577.7)" gradientUnits="userSpaceOnUse"><stop offset=".3" stop-color="#fff"/><stop offset=".6" stop-color="#fdfdfd"/><stop offset=".7" stop-color="#f5f5f6"/><stop offset=".7" stop-color="#e7e7e8"/><stop offset=".8" stop-color="#d3d4d6"/><stop offset=".8" stop-color="#bbbcbe"/><stop offset=".9" stop-color="#9ea1a3"/><stop offset=".9" stop-color="#7e8183"/><stop offset=".9" stop-color="#5b6061"/><stop offset="1" stop-color="#363b3b"/><stop offset="1" stop-color="#0b0f0f"/><stop offset="1"/></linearGradient><path fill="url(#R)" d="M-4 39.9l-11.4 15.8-11.4 15.7 70.9 51.5L67 91.5z" clip-path="url(#c)"/></g></mask><linearGradient id="T" x1="2259.7" x2="2259.7" y1="2952.1" y2="2834.5" gradientTransform="matrix(.19568 -.26933 .60308 .43816 -2167 -577.7)" gradientUnits="userSpaceOnUse"><stop offset="0" stop-opacity="0"/><stop offset="1" stop-opacity=".8"/></linearGradient><path fill="url(#T)" d="M-4 39.9l-11.4 15.8-11.4 15.7 70.9 51.5L67 91.5 15.6 54.2z" clip-path="url(#c)" mask="url(#S)"/><defs><filter id="U" width="95.4" height="77.5" x="-24.8" y="42.1" filterUnits="userSpaceOnUse"><feColorMatrix values="1 0 0 0 0 0 1 0 0 0 0 0 1 0 0 0 0 0 1 0"/></filter></defs><mask id="W" width="95.4" height="77.5" x="-24.8" y="42.1" maskUnits="userSpaceOnUse"><g filter="url(#U)"><linearGradient id="V" x1="1555" x2="1671.7" y1="3099.2" y2="3099.2" gradientTransform="matrix(.16645 -.2883 .64558 .37272 -2246.4 -609.2)" gradientUnits="userSpaceOnUse"><stop offset=".3" stop-color="#fff"/><stop offset=".6" stop-color="#fdfdfd"/><stop offset=".7" stop-color="#f5f5f6"/><stop offset=".7" stop-color="#e7e7e8"/><stop offset=".8" stop-color="#d3d4d6"/><stop offset=".8" stop-color="#bbbcbe"/><stop offset=".9" stop-color="#9ea1a3"/><stop offset=".9" stop-color="#7e8183"/><stop offset=".9" stop-color="#5b6061"/><stop offset="1" stop-color="#363b3b"/><stop offset="1" stop-color="#0b0f0f"/><stop offset="1"/></linearGradient><path fill="url(#V)" d="M-5.3 42.1l-9.8 16.8-9.7 16.8 76 43.9 19.4-33.7z" clip-path="url(#c)"/></g></mask><linearGradient id="X" x1="1613.4" x2="1613.4" y1="3158" y2="3040.4" gradientTransform="matrix(.16645 -.2883 .64558 .37272 -2246.4 -609.2)" gradientUnits="userSpaceOnUse"><stop offset="0" stop-opacity="0"/><stop offset="1" stop-opacity=".8"/></linearGradient><path fill="url(#X)" d="M-5.3 42.1l-9.8 16.8-9.7 16.8 76 43.9 19.4-33.7-55-31.7z" clip-path="url(#c)" mask="url(#W)"/><defs><filter id="Y" width="95.9" height="71.2" x="-22.3" y="44.3" filterUnits="userSpaceOnUse"><feColorMatrix values="1 0 0 0 0 0 1 0 0 0 0 0 1 0 0 0 0 0 1 0"/></filter></defs><mask id="aa" width="95.9" height="71.2" x="-22.3" y="44.3" maskUnits="userSpaceOnUse"><g filter="url(#Y)"><linearGradient id="Z" x1="864" x2="980.7" y1="3273.8" y2="3273.8" gradientTransform="matrix(.1354 -.30412 .681 .3032 -2328.7 -632.2)" gradientUnits="userSpaceOnUse"><stop offset=".3" stop-color="#fff"/><stop offset=".6" stop-color="#fdfdfd"/><stop offset=".7" stop-color="#f5f5f6"/><stop offset=".7" stop-color="#e7e7e8"/><stop offset=".8" stop-color="#d3d4d6"/><stop offset=".8" stop-color="#bbbcbe"/><stop offset=".9" stop-color="#9ea1a3"/><stop offset=".9" stop-color="#7e8183"/><stop offset=".9" stop-color="#5b6061"/><stop offset="1" stop-color="#363b3b"/><stop offset="1" stop-color="#0b0f0f"/><stop offset="1"/></linearGradient><path fill="url(#Z)" d="M-6.5 44.3l-7.9 17.8-7.9 17.7 80.1 35.7L73.6 80z" clip-path="url(#c)"/></g></mask><linearGradient id="ab" x1="922.4" x2="922.4" y1="3332.6" y2="3215" gradientTransform="matrix(.1354 -.30412 .681 .3032 -2328.7 -632.2)" gradientUnits="userSpaceOnUse"><stop offset="0" stop-opacity="0"/><stop offset="1" stop-opacity=".5"/></linearGradient><path fill="url(#ab)" d="M-6.5 44.3l-7.9 17.8-7.9 17.7 80.1 35.7L73.6 80l-58-25.8z" clip-path="url(#c)" mask="url(#aa)"/><defs><filter id="ac" width="95.4" height="64.1" x="-19.4" y="46.7" filterUnits="userSpaceOnUse"><feColorMatrix values="1 0 0 0 0 0 1 0 0 0 0 0 1 0 0 0 0 0 1 0"/></filter></defs><mask id="ae" width="95.4" height="64.1" x="-19.4" y="46.7" maskUnits="userSpaceOnUse"><g filter="url(#ac)"><linearGradient id="ad" x1="135.9" x2="252.6" y1="3415.2" y2="3415.2" gradientTransform="matrix(.10287 -.31661 .70896 .23036 -2413 -646.5)" gradientUnits="userSpaceOnUse"><stop offset=".3" stop-color="#fff"/><stop offset=".6" stop-color="#fdfdfd"/><stop offset=".7" stop-color="#f5f5f6"/><stop offset=".7" stop-color="#e7e7e8"/><stop offset=".8" stop-color="#d3d4d6"/><stop offset=".8" stop-color="#bbbcbe"/><stop offset=".9" stop-color="#9ea1a3"/><stop offset=".9" stop-color="#7e8183"/><stop offset=".9" stop-color="#5b6061"/><stop offset="1" stop-color="#363b3b"/><stop offset="1" stop-color="#0b0f0f"/><stop offset="1"/></linearGradient><path fill="url(#ad)" d="M-7.4 46.7l-6 18.5-6 18.5L64 110.8l12-37z" clip-path="url(#c)"/></g></mask><linearGradient id="af" x1="194.3" x2="194.3" y1="3474.1" y2="3356.4" gradientTransform="matrix(.10287 -.31661 .70896 .23036 -2413 -646.5)" gradientUnits="userSpaceOnUse"><stop offset="0" stop-opacity="0"/><stop offset="1" stop-opacity=".5"/></linearGradient><path fill="url(#af)" d="M-7.4 46.7l-6 18.5-6 18.5L64 110.8l12-37-60.4-19.6z" clip-path="url(#c)" mask="url(#ae)"/><defs><filter id="ag" width="93.9" height="56.2" x="-16.1" y="49.1" filterUnits="userSpaceOnUse"><feColorMatrix values="1 0 0 0 0 0 1 0 0 0 0 0 1 0 0 0 0 0 1 0"/></filter></defs><mask id="ai" width="93.9" height="56.2" x="-16.1" y="49.1" maskUnits="userSpaceOnUse"><g filter="url(#ag)"><linearGradient id="ah" x1="-621.3" x2="-504.6" y1="3521.9" y2="3521.9" gradientTransform="matrix(.06921 -.32563 .72916 .15499 -2498.2 -651.9)" gradientUnits="userSpaceOnUse"><stop offset=".3" stop-color="#fff"/><stop offset=".6" stop-color="#fdfdfd"/><stop offset=".7" stop-color="#f5f5f6"/><stop offset=".7" stop-color="#e7e7e8"/><stop offset=".8" stop-color="#d3d4d6"/><stop offset=".8" stop-color="#bbbcbe"/><stop offset=".9" stop-color="#9ea1a3"/><stop offset=".9" stop-color="#7e8183"/><stop offset=".9" stop-color="#5b6061"/><stop offset="1" stop-color="#363b3b"/><stop offset="1" stop-color="#0b0f0f"/><stop offset="1"/></linearGradient><path fill="url(#ah)" d="M-8.1 49.1l-4 19-4 19.1 85.7 18.2 8.1-38z" clip-path="url(#c)"/></g></mask><linearGradient id="aj" x1="-562.9" x2="-562.9" y1="3580.7" y2="3463" gradientTransform="matrix(.06921 -.32563 .72916 .15499 -2498.2 -651.9)" gradientUnits="userSpaceOnUse"><stop offset="0" stop-opacity="0"/><stop offset="1" stop-opacity=".3"/></linearGradient><path fill="url(#aj)" d="M-8.1 49.1l-4 19-4 19.1 85.7 18.2 8.1-38-62.1-13.2z" clip-path="url(#c)" mask="url(#ai)"/><defs><filter id="ak" width="91.3" height="47.8" x="-12.5" y="51.6" filterUnits="userSpaceOnUse"><feColorMatrix values="1 0 0 0 0 0 1 0 0 0 0 0 1 0 0 0 0 0 1 0"/></filter></defs><mask id="am" width="91.3" height="47.8" x="-12.5" y="51.6" maskUnits="userSpaceOnUse"><g filter="url(#ak)"><linearGradient id="al" x1="-1399.3" x2="-1282.6" y1="3592.6" y2="3592.6" gradientTransform="matrix(.0348 -.33108 .74137 .07792 -2583.6 -648.3)" gradientUnits="userSpaceOnUse"><stop offset=".3" stop-color="#fff"/><stop offset=".6" stop-color="#fdfdfd"/><stop offset=".7" stop-color="#f5f5f6"/><stop offset=".7" stop-color="#e7e7e8"/><stop offset=".8" stop-color="#d3d4d6"/><stop offset=".8" stop-color="#bbbcbe"/><stop offset=".9" stop-color="#9ea1a3"/><stop offset=".9" stop-color="#7e8183"/><stop offset=".9" stop-color="#5b6061"/><stop offset="1" stop-color="#363b3b"/><stop offset="1" stop-color="#0b0f0f"/><stop offset="1"/></linearGradient><path fill="url(#al)" d="M-8.5 51.6l-2 19.4-2 19.3 87.2 9.2 4.1-38.7z" clip-path="url(#c)"/></g></mask><linearGradient id="an" x1="-1340.9" x2="-1340.9" y1="3651.4" y2="3533.8" gradientTransform="matrix(.0348 -.33108 .74137 .07792 -2583.6 -648.3)" gradientUnits="userSpaceOnUse"><stop offset="0" stop-opacity="0"/><stop offset="1" stop-opacity=".3"/></linearGradient><path fill="url(#an)" d="M-8.5 51.6l-2 19.4-2 19.3 87.2 9.2 4.1-38.7-63.2-6.6z" clip-path="url(#c)" mask="url(#am)"/><defs><filter id="ao" width="87.7" height="43.6" x="-9.6" y="53" filterUnits="userSpaceOnUse"><feColorMatrix values="1 0 0 0 0 0 1 0 0 0 0 0 1 0 0 0 0 0 1 0"/></filter></defs><mask id="aq" width="87.7" height="43.6" x="-9.6" y="53" maskUnits="userSpaceOnUse"><g filter="url(#ao)"><linearGradient id="ap" x1="-2200.5" x2="-2069.4" y1="3625.2" y2="3625.2" gradientTransform="matrix(0 -.3329 .74545 0 -2668.2 -635.9)" gradientUnits="userSpaceOnUse"><stop offset=".3" stop-color="#fff"/><stop offset=".6" stop-color="#fdfdfd"/><stop offset=".7" stop-color="#f5f5f6"/><stop offset=".7" stop-color="#e7e7e8"/><stop offset=".8" stop-color="#d3d4d6"/><stop offset=".8" stop-color="#bbbcbe"/><stop offset=".9" stop-color="#9ea1a3"/><stop offset=".9" stop-color="#7e8183"/><stop offset=".9" stop-color="#5b6061"/><stop offset="1" stop-color="#363b3b"/><stop offset="1" stop-color="#0b0f0f"/><stop offset="1"/></linearGradient><path fill="url(#ap)" d="M-9.6 53v43.7h87.7V53z" clip-path="url(#c)"/></g></mask><linearGradient id="ar" x1="-2134.9" x2="-2134.9" y1="3684" y2="3566.4" gradientTransform="matrix(0 -.3329 .74545 0 -2668.2 -635.9)" gradientUnits="userSpaceOnUse"><stop offset="0" stop-opacity="0"/><stop offset="1" stop-opacity=".1"/></linearGradient><path fill="url(#ar)" d="M-9.6 53v43.7h87.7V53H14.6z" clip-path="url(#c)" mask="url(#aq)"/><defs><filter id="as" width="94.9" height="60.9" x="-10.7" y="38.6" filterUnits="userSpaceOnUse"><feColorMatrix values="1 0 0 0 0 0 1 0 0 0 0 0 1 0 0 0 0 0 1 0"/></filter></defs><mask id="au" width="94.9" height="60.9" x="-10.7" y="38.6" maskUnits="userSpaceOnUse"><g filter="url(#as)"><linearGradient id="at" x1="-1714.8" x2="-1583.7" y1="3416.5" y2="3416.5" gradientTransform="matrix(-.06921 -.32563 .72916 -.15499 -2568.5 61.5)" gradientUnits="userSpaceOnUse"><stop offset=".3" stop-color="#fff"/><stop offset=".6" stop-color="#fdfdfd"/><stop offset=".7" stop-color="#f5f5f6"/><stop offset=".7" stop-color="#e7e7e8"/><stop offset=".8" stop-color="#d3d4d6"/><stop offset=".8" stop-color="#bbbcbe"/><stop offset=".9" stop-color="#9ea1a3"/><stop offset=".9" stop-color="#7e8183"/><stop offset=".9" stop-color="#5b6061"/><stop offset="1" stop-color="#363b3b"/><stop offset="1" stop-color="#0b0f0f"/><stop offset="1"/></linearGradient><path fill="url(#at)" d="M-10.7 56.8l4.6 21.4 4.5 21.3 85.8-18.2-9.1-42.7z" clip-path="url(#c)"/></g></mask><linearGradient id="av" x1="-1649.2" x2="-1649.2" y1="3475.3" y2="3357.6" gradientTransform="matrix(-.06921 -.32563 .72916 -.15499 -2568.5 61.5)" gradientUnits="userSpaceOnUse"><stop offset="0" stop-opacity="0"/><stop offset="1" stop-opacity=".1"/></linearGradient><path fill="url(#av)" d="M-10.7 56.8l4.6 21.4 4.5 21.3 85.8-18.2-9.1-42.7L13 51.8z" clip-path="url(#c)" mask="url(#au)"/><defs><filter id="aw" width="91.8" height="52.6" x="-12.2" y="44" filterUnits="userSpaceOnUse"><feColorMatrix values="1 0 0 0 0 0 1 0 0 0 0 0 1 0 0 0 0 0 1 0"/></filter></defs><mask id="ay" width="91.8" height="52.6" x="-12.2" y="44" maskUnits="userSpaceOnUse"><g filter="url(#aw)"><linearGradient id="ax" x1="-1963.9" x2="-1832.8" y1="3513" y2="3513" gradientTransform="matrix(-.0348 -.33108 .74137 -.07792 -2636.8 -284.4)" gradientUnits="userSpaceOnUse"><stop offset=".3" stop-color="#fff"/><stop offset=".6" stop-color="#fdfdfd"/><stop offset=".7" stop-color="#f5f5f6"/><stop offset=".7" stop-color="#e7e7e8"/><stop offset=".8" stop-color="#d3d4d6"/><stop offset=".8" stop-color="#bbbcbe"/><stop offset=".9" stop-color="#9ea1a3"/><stop offset=".9" stop-color="#7e8183"/><stop offset=".9" stop-color="#5b6061"/><stop offset="1" stop-color="#363b3b"/><stop offset="1" stop-color="#0b0f0f"/><stop offset="1"/></linearGradient><path fill="url(#ax)" d="M-12.2 53.2l2.3 21.7 2.3 21.7 87.2-9.2L75.1 44z" clip-path="url(#c)"/></g></mask><linearGradient id="az" x1="-1898.3" x2="-1898.3" y1="3571.8" y2="3454.2" gradientTransform="matrix(-.0348 -.33108 .74137 -.07792 -2636.8 -284.4)" gradientUnits="userSpaceOnUse"><stop offset="0" stop-opacity="0"/><stop offset="1" stop-opacity=".1"/></linearGradient><path fill="url(#az)" d="M-12.2 53.2l2.3 21.7 2.3 21.7 87.2-9.2L75.1 44l-63.2 6.7z" clip-path="url(#c)" mask="url(#ay)"/><linearGradient id="aA" x1="-37.7" x2="-37.7" y1="1502.8" y2="1405.9" gradientTransform="matrix(.95106 -.30902 .16908 .52038 -192.4 -698.1)" gradientUnits="userSpaceOnUse"><stop offset="0" stop-opacity=".7"/><stop offset="1" stop-opacity="0"/></linearGradient><path fill="url(#aA)" d="M55.2 30.3L9.5 45.1-36.2 60l16.4 50.4 91.4-29.7z" clip-path="url(#c)"/><defs><filter id="aB" width="113" height="108.9" x="-32.2" y="46.3" filterUnits="userSpaceOnUse"><feColorMatrix values="1 0 0 0 0 0 1 0 0 0 0 0 1 0 0 0 0 0 1 0"/></filter></defs><mask id="aD" width="113" height="108.9" x="-32.2" y="46.3" maskUnits="userSpaceOnUse"><g filter="url(#aB)"><linearGradient id="aC" x1="-28.4" x2="67.8" y1="644.5" y2="644.5" gradientTransform="matrix(.97815 -.20791 .19507 .91774 -120.7 -486.6)" gradientUnits="userSpaceOnUse"><stop offset="0"/><stop offset="1" stop-color="#fff"/></linearGradient><path fill="url(#aC)" d="M61.9 46.3l-47.1 10-47 10 18.9 88.9 94.1-20z" clip-path="url(#c)"/></g></mask><linearGradient id="aE" x1="19.7" x2="19.7" y1="693" y2="596" gradientTransform="matrix(.97815 -.20791 .19507 .91774 -120.7 -486.6)" gradientUnits="userSpaceOnUse"><stop offset="0" stop-opacity=".6"/><stop offset="1" stop-opacity="0"/></linearGradient><path fill="url(#aE)" d="M61.9 46.3l-47.1 10-47 10 18.9 88.9 94.1-20z" clip-path="url(#c)" mask="url(#aD)"/><linearGradient id="aF" x1="-36" x2="-36" y1="968.3" y2="871.4" gradientTransform="matrix(.95106 -.30902 .28993 .89232 -203.5 -732.4)" gradientUnits="userSpaceOnUse"><stop offset="0" stop-opacity=".6"/><stop offset="1" stop-opacity="0"/></linearGradient><path fill="url(#aF)" d="M60.6 41.4L14.8 56.3l-45.7 14.8 28.1 86.5 91.5-29.7z" clip-path="url(#c)"/><linearGradient id="aG" x1="-123.3" x2="-123.3" y1="1234.2" y2="1137.3" gradientTransform="matrix(.91355 -.40674 .38162 .85713 -306.6 -968.6)" gradientUnits="userSpaceOnUse"><stop offset="0" stop-opacity=".7"/><stop offset="1" stop-opacity="0"/></linearGradient><path fill="url(#aG)" d="M58.8 36.7l-44 19.6-43.9 19.5 37 83.1 87.8-39.1z" clip-path="url(#c)"/><linearGradient id="aH" x1="-234.5" x2="-234.5" y1="1489.6" y2="1392.6" gradientTransform="matrix(.86603 -.5 .46912 .81254 -435.4 -1192.6)" gradientUnits="userSpaceOnUse"><stop offset="0" stop-opacity=".6"/><stop offset="1" stop-opacity="0"/></linearGradient><path fill="url(#aH)" d="M56.5 32.3l-41.7 24-41.6 24 45.5 78.8 83.2-48.1z" clip-path="url(#c)"/><linearGradient id="aI" x1="-370.2" x2="-370.2" y1="1731.1" y2="1634.2" gradientTransform="matrix(.80902 -.58779 .55149 .75905 -586.9 -1401.8)" gradientUnits="userSpaceOnUse"><stop offset="0" stop-opacity=".5"/><stop offset="1" stop-opacity="0"/></linearGradient><path fill="url(#aI)" d="M53.7 28L14.8 56.3l-38.9 28.2 53.5 73.6 77.8-56.5z" clip-path="url(#c)"/><path d="M30.2 0a30.2 30.2 0 00-15.1 56.4l30.3-22 14.4-10.5C56.8 10.2 44.8 0 30.2 0z"/></svg>