<svg xmlns="http://www.w3.org/2000/svg" viewBox="0 0 150 150"><path fill="#252525" d="M45.3 29.2a9.4 9.4 0 00-6.8-2.6A10 10 0 1045.3 44c.2-.2.2-.6 0-.8L43.1 41c-.1-.2-.5-.2-.7 0-1 .9-2.2 1.3-3.7 1.3a5.5 5.5 0 01-5.5-5.6c0-3.1 2.3-5.8 5.5-5.8 1.3 0 2.6.5 3.7 1.5.2.2.5.2.7 0l2.2-2.3c.2-.2.2-.6 0-.8zm65.5 95.2c.3 0 .5-.2.5-.5v-2.5c0-.3-.2-.5-.5-.5-3.9-.3-6.2-3.3-6.2-8.3 0-5 2.3-8 6.2-8.2.3 0 .5-.3.5-.5v-2.5c0-.3-.2-.5-.5-.5-4.6.2-9.8 3.3-9.8 11.7 0 8.4 5.2 11.6 9.8 11.8zm.3-13c0-.3.3-.6.6-.6h2.4c.3 0 .6.3.6.6v2.4c0 .4-.3.6-.6.6h-2.4a.6.6 0 01-.6-.6zm3.4-10c0-.3.3-.5.5-.5 4.6.2 9.8 3.3 9.8 11.7 0 8.4-5.2 11.6-9.8 11.8a.5.5 0 01-.5-.5v-2.5c0-.3.2-.5.5-.5 4-.3 6.3-3.3 6.3-8.3s-2.4-8-6.3-8.2a.5.5 0 01-.5-.5zm-42.7 5.5v4.3H76c1.1 0 2-1 2-2.2s-.9-2.1-2-2.1zm7 7.4l4 7.3c.1.3 0 .8-.5.8h-3.7a.5.5 0 01-.5-.3l-3.7-7.4h-2.6v7.1c0 .3-.2.6-.5.6H68a.5.5 0 01-.5-.6v-18.4c0-.3.2-.5.5-.5h8.3a6 6 0 016.1 6c0 2.4-1.3 4.3-3.6 5.4zM37 111l2 4.6h-4.2L37 111zm-.7-8.2l-8.7 18.8c-.1.3 0 .7.5.7h3a1 1 0 001-.7l1-2.2h7.6l1 2.2c.3.5.5.7 1 .7h3.1c.4 0 .7-.4.5-.7l-8.7-18.8c-.1-.2-.3-.3-.5-.3h-.3c-.2 0-.4.1-.5.3zm71.8-38.1c-.3 0-.5.2-.5.5v18.5c0 .2.2.5.5.5h10.5c.3 0 .5-.3.5-.5v-3c0-.4-.2-.6-.5-.6h-6.7V65.3c0-.3-.2-.5-.5-.5zm-40.6 0c-.3 0-.5.2-.5.5v11.9c0 4.2 3.5 7.4 8 7.4 4.3 0 7.9-3.2 7.9-7.4V65.3c0-.3-.3-.5-.6-.5H79c-.3 0-.5.2-.5.5V77c0 2-1.5 3.2-3.5 3.2s-3.4-1.1-3.4-3.2V65.3c0-.3-.2-.5-.5-.5zm-35.8 0c-.3 0-.5.2-.5.5v18.5c0 .2.2.5.5.5h10.5c.3 0 .5-.3.5-.5v-3c0-.4-.2-.6-.5-.6h-6.6V65.3c0-.3-.3-.5-.6-.5zm76.4-37.9c-.3 0-.5.3-.5.5V46c0 .3.2.5.5.5h10.5c.3 0 .5-.2.5-.5v-3c0-.3-.2-.6-.5-.6h-6.7V27.4c0-.2-.2-.5-.5-.5zm-39 0c-.2 0-.5.3-.5.5V46c0 .3.3.5.6.5h11.5c.3 0 .5-.2.5-.5v-3c0-.3-.2-.6-.5-.6H73v-3.7h6.3c.3 0 .6-.3.6-.6v-3c0-.3-.3-.5-.6-.5H73V31h7.7c.3 0 .5-.2.5-.5v-3c0-.3-.2-.6-.5-.6z"/></svg>
