<svg xmlns="http://www.w3.org/2000/svg" width="1163.9" height="534.4">
  <g fill="#003480">
    <path fill-rule="evenodd" d="M982.7 347.3V127.8l-220.3 79.3v54.8l73-26.6V400l147.3-52.7"/>
    <path fill-rule="evenodd" d="M898.7 0a269 269 0 00-220 114.3l38.8 27.2a220.5 220.5 0 01180-94.4c120.8 0 216.8 99 216.8 220 0 121.3-96 220.2-216.7 220.2a220 220 0 01-179.7-94.7l-39.6 27.6c48.3 69 127 114.2 217.7 114.2 148.2 0 267.8-120 267.8-267.6A265.2 265.2 0 00898.8 0"/>
    <path d="M556.9 348c-9.2 0-21.6-.5-28.2-1.6V186c7-.4 17.5-.7 28.2-.7 48.7 0 72.3 26.8 72.3 81.8 0 55.2-23 80.9-72.3 80.9m3.2-204.4c-26.2 0-43.4.4-57.3.8-8.6.2-15.4.4-21.9.4h-1.2v243.9l9.7.2c19.2.5 41 1 62.9 1 84.1 0 128.6-43.1 128.6-124.7 0-79.6-41.8-121.6-120.8-121.6M78.5 297.7l23.8-74.9c3.2-10 6.5-21.6 8.9-31.9a760 760 0 009.2 32.2l24 74.6zm66.3-152l-.3-.9H83.3L0 389.2h49.4l16-50.2h92.1l16.1 50.2H228l-83.1-243.6M306.2 185.4c3.8 0 16.4-.4 34.8-.4 27 0 40 11.4 40 35 0 23.3-14 35-41.5 35h-33.3zm88.5 119.7c-3.7-6.4-8.1-12.8-11.6-17.7 31-11 49.6-35.8 49.6-69.3 0-48.8-30.5-74.5-88.3-74.5-25.6 0-49 .5-66 .9l-19.8.3h-1.2v244.4h48.8V296h27l55 93.2H447L394.7 305"/>
  </g>
</svg>
