<svg xmlns="http://www.w3.org/2000/svg" viewBox="0 0 100 100"><path fill="#252525" d="M18.4 2.7c-2-1.8-4-2.7-7-2.7a10.3 10.3 0 107 17.8c.2-.2.2-.6 0-.8l-2.2-2.4c-.2-.2-.5-.2-.7 0-1 .9-2.3 1.4-3.8 1.4A5.6 5.6 0 016 10.2C6 7 8.4 4.3 11.6 4.3c1.4 0 2.7.4 3.9 1.5.2.2.5.2.7 0l2.2-2.4c.2-.2.2-.5 0-.7zm67 97.3c.3 0 .5-.2.5-.5v-2.6c0-.3-.2-.5-.4-.5-4-.2-6.5-3.3-6.5-8.4 0-5.1 2.4-8.2 6.5-8.5.2 0 .4-.2.4-.5v-2.5c0-.3-.2-.6-.5-.6-4.7.3-10 3.5-10 12 0 8.6 5.3 11.9 10 12.1zm.4-13.3c0-.3.2-.5.5-.5h2.5c.4 0 .6.2.6.5v2.5c0 .3-.2.6-.6.6h-2.5a.6.6 0 01-.5-.6v-2.5zm3.4-10.2c0-.3.3-.6.6-.6 4.7.3 10 3.5 10 12 0 8.6-5.3 11.9-10 12.1a.5.5 0 01-.6-.5v-2.6c0-.3.3-.5.5-.5 4-.2 6.4-3.3 6.4-8.4s-2.4-8.2-6.4-8.5a.5.5 0 01-.5-.5v-2.5zM45.6 82v4.4h4.2c1.2 0 2.2-1 2.2-2.3a2 2 0 00-2.2-2.1h-4.2zm7 7.6l4.1 7.4c.2.4 0 .9-.5.9h-3.7a.5.5 0 01-.5-.3l-3.8-7.6h-2.6v7.3c0 .3-.3.6-.6.6h-3.4a.5.5 0 01-.5-.6V78.5c0-.2.2-.5.5-.5h8.6a6 6 0 016.2 6.2 6 6 0 01-3.7 5.5zM10 86.4l2.1 4.7H7.7l2.2-4.7zM9.3 78l-9 19.2c-.1.4 0 .8.5.8H4a1 1 0 001-.7L6 95h7.8l1 2.2c.2.6.5.8 1 .8h3.1c.5 0 .7-.4.5-.8L10.5 78c0-.1-.3-.3-.5-.3h-.3c-.2 0-.4.2-.4.3zm73.3-39c-.3 0-.5.3-.5.6v18.8c0 .3.2.6.5.6h10.8c.3 0 .5-.3.5-.6v-3c0-.4-.2-.6-.5-.6h-6.8V39.6c0-.3-.3-.6-.6-.6h-3.4zm-41.4 0c-.3 0-.6.3-.6.6v12c0 4.4 3.6 7.7 8.1 7.7S57 56 57 51.7V39.6c0-.3-.3-.6-.6-.6h-3.5c-.3 0-.5.3-.5.6v11.9c0 2-1.5 3.2-3.6 3.2-2 0-3.5-1.2-3.5-3.2v-12c0-.2-.2-.5-.5-.5h-3.5zM4.5 39c-.3 0-.5.3-.5.6v18.8c0 .3.2.6.5.6h10.7c.4 0 .6-.3.6-.6v-3c0-.4-.2-.6-.6-.6H8.5V39.6c0-.3-.3-.6-.6-.6H4.5zM82.6.3c-.3 0-.5.2-.5.5v18.9c0 .3.2.5.5.5h10.8c.3 0 .5-.2.5-.5v-3.1c0-.3-.2-.6-.5-.6h-6.8V.8c0-.3-.3-.5-.6-.5h-3.4zM42.8.3c-.3 0-.5.2-.5.5v18.9c0 .3.2.5.5.5h11.8c.3 0 .6-.2.6-.5v-3.1c0-.3-.3-.6-.6-.6h-7.9v-3.8h6.5c.3 0 .6-.2.6-.5V8.6c0-.3-.3-.6-.6-.6h-6.5V4.5h8c.2 0 .5-.3.5-.6V1c0-.4-.3-.6-.6-.6H42.8z"/></svg>
