<svg fill="none" height="150" viewBox="0 0 150 150" width="150" xmlns="http://www.w3.org/2000/svg"><path clip-rule="evenodd" d="m45.2619 29.2256c-1.8951-1.7269-3.9562-2.5903-6.7419-2.5903-5.5715 0-10.057 4.4851-10.057 10.0566s4.4855 10.001 10.057 10.001c2.4793 0 4.8753-.8638 6.7694-2.702.1947-.1954.2233-.557.0278-.7525l-2.1727-2.3121c-.1672-.1951-.5299-.1951-.7246-.0278-1.0029.8634-2.2005 1.337-3.733 1.337-3.1481 0-5.4877-2.5631-5.4877-5.6549 0-3.1203 2.3121-5.7391 5.4599-5.7391 1.3652 0 2.6188.4177 3.7608 1.4212.1947.1948.5014.1948.6961 0l2.1734-2.2571c.2233-.2226.2233-.5568-.0275-.78zm65.5171 95.1504c.278.013.506-.216.506-.494v-2.527c0-.258-.197-.478-.454-.493-3.935-.215-6.268-3.262-6.268-8.24 0-4.979 2.333-8.025 6.268-8.241.257-.014.454-.235.454-.492v-2.528c0-.278-.228-.507-.506-.494-4.601.214-9.73 3.378-9.73 11.755 0 8.376 5.129 11.54 9.73 11.754zm.35-12.975c0-.309.251-.559.559-.559h2.442c.308 0 .558.25.558.559v2.442c0 .308-.25.558-.558.558h-2.442c-.308 0-.559-.25-.559-.558zm3.404-10.04c0-.278.228-.507.506-.494 4.6.214 9.73 3.378 9.73 11.755 0 8.376-5.13 11.54-9.73 11.755-.278.012-.506-.217-.506-.495v-2.527c0-.258.197-.479.454-.493 3.935-.215 6.268-3.261 6.268-8.24s-2.333-8.025-6.268-8.241c-.257-.014-.454-.235-.454-.492zm-42.6921 5.499v4.346h4.1228c1.1426 0 2.117-.92 2.117-2.229s-.9744-2.117-2.117-2.117zm6.9594 7.413 3.9462 7.296c.1948.362 0 .808-.4736.808h-3.7048c-.2233 0-.3905-.139-.4462-.251l-3.7055-7.382h-2.5755v7.104c0 .278-.2507.529-.5296.529h-3.315c-.3064 0-.5289-.251-.5289-.529v-18.442c0-.279.2225-.529.5289-.529h8.3294c3.5382 0 6.0729 2.702 6.0729 6.017 0 2.384-1.3271 4.334-3.5983 5.379zm-41.842-3.179 2.1174 4.597h-4.2347l2.0892-4.597zm-.613-8.19-8.7192 18.749c-.1676.362.0556.724.4729.724h3.0643c.5574 0 .8641-.334 1.0029-.668l1.0028-2.229h7.578l1.0029 2.201c.2507.529.4736.696.975.696h3.0921c.4177 0 .6412-.362.4736-.724l-8.7192-18.749c-.0838-.167-.2792-.306-.474-.306h-.2781c-.1955 0-.3906.139-.474.306zm71.7357-38.1212c-.307 0-.529.2507-.529.5289v18.442c0 .2789.222.5296.529.5296h10.474c.307 0 .53-.2507.53-.5296v-3.0364c0-.2786-.223-.5293-.53-.5293h-6.63v-14.8763c0-.2782-.251-.5289-.529-.5289zm-40.5578 0c-.2785 0-.5292.2507-.5292.5289v11.8398c0 4.2345 3.5379 7.4104 7.9118 7.4104 4.4016 0 7.9674-3.1759 7.9674-7.4104v-11.8398c0-.2782-.2508-.5289-.5293-.5289h-3.4266c-.3067 0-.5289.2507-.5289.5289v11.6169c0 2.034-1.4769 3.1756-3.4826 3.1756-1.978 0-3.4267-1.1416-3.4267-3.1756v-11.6169c0-.2782-.2225-.5289-.5289-.5289zm-35.8024 0c-.3067 0-.5289.2507-.5289.5289v18.442c0 .2789.2222.5296.5289.5296h10.4746c.3064 0 .5293-.2507.5293-.5296v-3.0364c0-.2786-.2229-.5293-.5293-.5293h-6.6303v-14.8763c0-.2782-.2507-.5289-.5293-.5289zm76.3612-37.869c-.307 0-.53.2507-.53.5289v18.4424c0 .2786.223.5293.53.5293h10.474c.306 0 .529-.2507.529-.5293v-3.0368c0-.2785-.223-.5293-.529-.5293h-6.631v-14.8763c0-.2782-.25-.5289-.528-.5289zm-38.915 0c-.3063 0-.5292.2507-.5292.5289v18.4424c0 .2786.2229.5293.5292.5293h11.5335c.3067 0 .5289-.2507.5289-.5293v-3.0368c0-.2785-.2222-.5293-.5289-.5293h-7.717v-3.7604h6.3514c.2789 0 .5297-.2229.5297-.5296v-3.0365c0-.2785-.2508-.5292-.5297-.5292h-6.3514v-3.4548h7.717c.3067 0 .5289-.2508.5289-.529v-3.0368c0-.2782-.2222-.5289-.5289-.5289z" fill="#252525" fill-rule="evenodd"/></svg>